<svg id="Capa_1" enable-background="new 0 0 512 512" height="512" viewBox="0 0 512 512" width="512" xmlns="http://www.w3.org/2000/svg"><g><path d="m512 256c0 74.36-31.7 141.31-82.33 188.08v-.01h-79.64l-17.37 56.25c-24.2 7.59-49.95 11.68-76.66 11.68-11 0-21.83-.69-32.46-2.04l-35.31-49.45h-86.23c-61.95-46.72-102-120.94-102-204.51 0-46.22 12.25-89.57 33.68-127 44.12-77.07 127.16-129 222.32-129s178.2 51.93 222.32 129c21.43 37.43 33.68 80.78 33.68 127z" fill="#00adff"/><path d="m512 256c0 74.35-31.7 141.3-82.33 188.07h-79.64l-17.37 56.25c-24.2 7.59-49.95 11.68-76.66 11.68-11 0-21.83-.69-32.46-2.04l-35.31-49.45h-86.23c-61.95-46.72-102-120.94-102-204.51 0-46.22 12.25-89.57 33.68-127 44.12 77.07 127.16 129 222.32 129s178.21-51.93 222.32-129c21.43 37.43 33.68 80.78 33.68 127z" fill="#0092ff"/><g><g><path d="m405.98 420.58-21.09 56.64c-16.35 9.55-33.84 17.33-52.23 23.1v-179.82h52.23z" fill="#ffc0a4"/><path d="m429.67 320.5v123.57c-8.67 8.01-17.89 15.43-27.61 22.19-5.56 3.88-11.29 7.54-17.17 10.96v-156.72z" fill="#ffa87a"/><path d="m422.397 255.491-37.618 129.909h-17.375c-47.976 0-86.867-38.891-86.867-86.867v-53.677c0-4.799 1.944-9.143 5.09-12.285 3.146-3.146 7.486-5.09 12.285-5.09l17.372 17.375v-83.037c0-9.55 7.596-17.508 17.143-17.634h.229l17.372 17.375v-.262c.003.087.003.174.003.262v-36.743c0-9.547 7.596-17.508 17.143-17.63h.233l17.372 17.372v.003z" fill="#ffc0a4"/><path d="m454.274 258.324v80.971c0 25.462-20.644 46.106-46.109 46.106h-23.385v-260.842c0-9.595 7.777-17.372 17.372-17.372h.007l17.369 54.332c.013-4.783 1.954-9.111 5.09-12.243 3.146-3.146 7.486-5.09 12.285-5.09z" fill="#ffa87a"/><path d="m436.9 258.324v-114.138c9.595 0 17.372 7.777 17.372 17.375v96.763z" fill="#ef815b"/><path d="m332.658 258.324v-114.138c9.595 0 17.372 7.777 17.372 17.375v96.763z" fill="#f99569"/><path d="m402.153 107.184v151.14h17.372v-133.765c0-9.598-7.777-17.375-17.372-17.375z" fill="#ef815b"/><path d="m367.406 107.187v151.137h17.372v-133.762c0-9.598-7.777-17.375-17.372-17.375z" fill="#f99569"/><path d="m297.911 227.48v84.263h17.372v-66.888c0-9.598-7.777-17.375-17.372-17.375z" fill="#f99569"/><path d="m384.778 204.525v19.594h17.375l8.686-9.797-8.686-9.797z" fill="#ffe164"/><path d="m402.153 204.525h17.372v19.594h-17.372z" fill="#fed500"/></g><g><path d="m204.89 427.18-36.19 69.54c-24.13-8.74-46.57-21.03-66.7-36.21v-140.01h66.7z" fill="#ffc0a4"/><path d="m223.54 320.5v189.46c-15.57-1.97-30.71-5.34-45.28-9.98-3.21-1.02-6.4-2.11-9.56-3.26v-176.22z" fill="#ffa87a"/><g><path d="m214.383 240.61-45.685 144.79h-21.101c-58.264 0-105.494-47.231-105.494-105.495v-52.212c0-5.828 2.361-11.104 6.181-14.92 3.82-3.82 9.092-6.181 14.92-6.181l21.097 21.101v-81.758c0-11.598 9.225-21.262 20.819-21.415h.278l21.097 21.101v-.318c.004.106.004.212.004.318v-44.621c0-11.594 9.225-21.262 20.819-21.411h.282l21.097 21.097v.004z" fill="#ffc0a4"/><path d="m253.095 244.049v85.358c0 30.922-25.07 55.993-55.997 55.993h-28.4v-284.714c0-11.653 9.445-21.097 21.097-21.097h.008l21.094 65.983c.016-5.809 2.373-11.064 6.181-14.869 3.82-3.82 9.092-6.181 14.92-6.181z" fill="#ffa87a"/><path d="m231.996 244.049v-119.528c11.653 0 21.097 9.445 21.097 21.101v98.427z" fill="#ef815b"/><path d="m105.4 244.049v-119.528c11.653 0 21.097 9.445 21.097 21.101v98.427z" fill="#f99569"/><path d="m189.798 79.585v164.464h21.097v-143.363c0-11.656-9.444-21.101-21.097-21.101z" fill="#ef815b"/><path d="m147.599 79.589v164.46h21.097v-143.359c.001-11.656-9.444-21.101-21.097-21.101z" fill="#f99569"/><path d="m63.202 206.591v89.356h21.097v-68.255c0-11.656-9.444-21.101-21.097-21.101z" fill="#f99569"/><path d="m168.697 178.714v23.796h21.101l10.548-11.898-10.548-11.898z" fill="#ffe164"/><path d="m189.798 178.714h21.097v23.796h-21.097z" fill="#fed500"/></g></g></g></g></svg>