<?xml version="1.0" encoding="iso-8859-1"?>
<!-- Generator: Adobe Illustrator 19.0.0, SVG Export Plug-In . SVG Version: 6.00 Build 0)  -->
<svg version="1.1" id="Capa_1" xmlns="http://www.w3.org/2000/svg" xmlns:xlink="http://www.w3.org/1999/xlink" x="0px" y="0px"
	 viewBox="0 0 512.001 512.001" style="enable-background:new 0 0 512.001 512.001;" xml:space="preserve">
<path style="fill:#414B82;" d="M425.195,512c-13.476,0-24.402-10.925-24.402-24.402V292.553c0-13.476,10.925-24.402,24.402-24.402
	c13.476,0,24.402,10.925,24.402,24.402v195.045C449.597,501.075,438.672,512,425.195,512z"/>
<path style="fill:#5F6E9B;" d="M366.289,512c-13.476,0-24.402-10.925-24.402-24.402V292.553c0-13.476,10.925-24.402,24.402-24.402
	s24.402,10.925,24.402,24.402v195.045C390.691,501.075,379.767,512,366.289,512z"/>
<path style="fill:#414B82;" d="M499.196,145.143c-0.133-26.401-22.056-47.88-48.871-47.88c-13.24,0-92.981,0-109.167,0
	c-26.815,0-48.739,21.479-48.871,47.88c0,0.034,0,0.068,0,0.102v149.391c0,11.231,9.104,20.335,20.335,20.335
	c11.231,0,20.335-9.104,20.335-20.335V145.312c0.043-3.867,3.941-7.38,8.202-7.38h0.732v154.621h107.709V137.933h0.727
	c4.261,0,8.16,3.514,8.202,7.38v149.324c0,11.231,9.104,20.335,20.335,20.335s20.335-9.104,20.335-20.335V145.245
	C499.196,145.211,499.196,145.177,499.196,145.143z"/>
<path style="fill:#1E2D64;" d="M499.196,145.143c-0.133-26.401-22.056-47.88-48.871-47.88c-6.447,0-48.177,0-54.588,0v195.291
	h53.861V137.933h0.727c4.261,0,8.16,3.514,8.202,7.38v149.324c0,11.231,9.104,20.335,20.335,20.335s20.335-9.104,20.335-20.335
	V145.245C499.196,145.211,499.196,145.177,499.196,145.143z"/>
<rect x="466.942" y="284.148" style="fill:#292D30;" width="23.69" height="51.087"/>
<g>
	<path style="fill:#FFFFFF;" d="M292.278,284.149v10.489c0,11.231,9.104,20.335,20.335,20.335c11.231,0,20.335-9.104,20.335-20.335
		v-10.489H292.278z"/>
	<path style="fill:#FFFFFF;" d="M458.52,284.149v10.489c0,11.231,9.104,20.335,20.335,20.335s20.335-9.104,20.335-20.335v-10.489
		H458.52z"/>
</g>
<g>
	<path style="fill:#FFB69E;" d="M292.278,294.113v0.523c0,11.231,9.104,20.335,20.335,20.335c11.231,0,20.335-9.104,20.335-20.335
		v-0.523H292.278z"/>
	<path style="fill:#FFB69E;" d="M458.52,294.113v0.523c0,11.231,9.104,20.335,20.335,20.335s20.335-9.104,20.335-20.335v-0.523
		H458.52z"/>
	<circle style="fill:#FFB69E;" cx="395.734" cy="42.144" r="42.144"/>
</g>
<path style="fill:#80391B;" d="M495.052,427.348h-32.429c-4.144,0-7.503-3.359-7.503-7.503v-82.672c0-4.144,3.359-7.503,7.503-7.503
	h32.428c4.144,0,7.503,3.359,7.503,7.503v82.672C502.556,423.988,499.196,427.348,495.052,427.348z"/>
<polygon style="fill:#FFFFFF;" points="364.709,97.263 395.736,178.688 426.771,97.263 "/>
<path style="fill:#FF3C3C;" d="M409.232,124.981l-6.893-12.536l5.941-10.804c1.081-1.965-0.343-4.377-2.589-4.377h-19.915
	c-2.242,0-3.67,2.41-2.589,4.377l5.961,10.84l-6.874,12.502c-0.952,1.731-1.261,3.743-0.875,5.68l4.24,21.524l10.096,26.502
	l10.106-26.507l4.264-21.517C410.494,128.726,410.185,126.714,409.232,124.981z"/>
<path style="fill:#DC1428;" d="M409.232,124.981l-6.893-12.536l5.941-10.804c1.081-1.965-0.342-4.377-2.589-4.377h-9.955v81.408
	v0.017l10.106-26.507l4.264-21.517C410.494,128.726,410.185,126.714,409.232,124.981z"/>
<rect x="410.757" y="159.828" style="fill:#414B82;" width="26.862" height="8.285"/>
<path style="fill:#632C15;" d="M495.052,329.67h-16.268v97.678h16.268c4.144,0,7.503-3.36,7.503-7.503v-82.672
	C502.556,333.029,499.196,329.67,495.052,329.67z"/>
<g>
	<path style="fill:#BA6746;" d="M86.309,330.753v157.069c0,13.353,10.825,24.178,24.178,24.178s24.178-10.825,24.178-24.178V330.753
		H86.309z"/>
	<path style="fill:#BA6746;" d="M145.105,330.753v157.069c0,13.353,10.825,24.178,24.178,24.178s24.178-10.825,24.178-24.178
		V330.753H145.105z"/>
</g>
<path style="fill:#96A5D7;" d="M269.094,277.445c-0.33-0.905-33.229-90.911-47.717-133.071
	c-9.348-27.203-25.022-40.994-46.587-40.994h-69.81c-21.565,0-37.24,13.793-46.587,40.994
	c-14.488,42.157-47.386,132.167-47.717,133.071c-3.821,10.451,1.553,22.021,12.004,25.842c10.428,3.812,22.013-1.532,25.842-12.004
	c0.28-0.767,40.041-111.084,40.041-111.084L59.946,330.236c-1.343,6.93,3.999,13.334,10.989,13.334c31.132,0,106.791,0,137.9,0
	c7.013,0,12.332-6.398,10.989-13.334l-28.618-150.038c0,0,39.761,110.317,40.041,111.084c3.827,10.467,15.407,15.82,25.842,12.004
	C267.54,299.465,272.915,287.895,269.094,277.445z"/>
<path style="fill:#8093CF;" d="M269.094,277.445c-0.33-0.904-33.229-90.91-47.717-133.071
	c-9.348-27.203-25.022-40.995-46.587-40.995h-34.892V343.57c26.694,0,53.383,0,68.937,0c7.013,0,12.332-6.398,10.989-13.334
	l-28.618-150.038c0,0,39.761,110.317,40.041,111.084c3.827,10.467,15.407,15.82,25.842,12.004
	C267.54,299.465,272.915,287.895,269.094,277.445z"/>
<rect x="239.933" y="283.816" style="fill:#292D30;" width="21.158" height="45.621"/>
<path style="fill:#80391B;" d="M265.037,411.689h-28.956c-3.7,0-6.7-3-6.7-6.7v-73.821c0-3.7,3-6.7,6.7-6.7h28.956
	c3.7,0,6.7,3,6.7,6.7v73.821C271.737,408.689,268.736,411.689,265.037,411.689z"/>
<path style="fill:#632C15;" d="M265.037,324.468H250.51v87.221h14.527c3.7,0,6.7-3.001,6.7-6.7v-73.821
	C271.737,327.468,268.736,324.468,265.037,324.468z"/>
<g>
	<circle style="fill:#BA6746;" cx="139.885" cy="46.414" r="41.758"/>
	<path style="fill:#BA6746;" d="M10.676,277.445c-3.821,10.451,1.553,22.021,12.004,25.842c2.284,0.835,4.619,1.231,6.917,1.23
		c8.219-0.001,15.939-5.067,18.925-13.235C48.613,291.034,10.716,277.334,10.676,277.445z"/>
	<path style="fill:#BA6746;" d="M231.248,291.281c3.827,10.466,15.406,15.821,25.842,12.004
		c10.451-3.821,15.826-15.39,12.004-25.842C269.054,277.334,231.157,291.034,231.248,291.281z"/>
</g>
<g>
	<polygon style="fill:#FFFFFF;" points="52.001,281.623 14.154,267.785 10.676,277.445 48.523,291.281 	"/>
	<polygon style="fill:#FFFFFF;" points="227.729,281.637 265.614,267.785 269.093,277.445 231.246,291.281 	"/>
	<polygon style="fill:#FFFFFF;" points="108.854,103.378 139.881,184.804 170.917,103.378 	"/>
</g>
<path style="fill:#373C41;" d="M153.377,131.097l-6.893-12.536l5.941-10.804c1.081-1.965-0.343-4.377-2.589-4.377h-19.915
	c-2.242,0-3.67,2.41-2.589,4.377l5.961,10.84l-6.874,12.502c-0.952,1.731-1.261,3.743-0.875,5.68l4.24,21.524l10.096,26.502
	l10.106-26.507l4.264-21.517C154.639,134.842,154.329,132.829,153.377,131.097z"/>
<path style="fill:#292D30;" d="M153.377,131.097l-6.893-12.536l5.941-10.804c1.081-1.965-0.342-4.377-2.589-4.377h-9.955v81.408
	v0.017l10.106-26.507l4.264-21.517C154.639,134.842,154.329,132.829,153.377,131.097z"/>
<rect x="161.616" y="257.336" style="fill:#50374B;" width="26.862" height="8.285"/>
<rect x="91.322" y="257.336" style="fill:#40273B;" width="26.862" height="8.285"/>
<g>
</g>
<g>
</g>
<g>
</g>
<g>
</g>
<g>
</g>
<g>
</g>
<g>
</g>
<g>
</g>
<g>
</g>
<g>
</g>
<g>
</g>
<g>
</g>
<g>
</g>
<g>
</g>
<g>
</g>
</svg>
