<svg height="512pt" viewBox="0 -64 512.00918 512" width="512pt" xmlns="http://www.w3.org/2000/svg"><path d="m125.457031 179.628906 18.40625-7.105468c8.160157-2.722657 17.109375-1.519532 24.261719 3.25l16.160156 6.878906 71.722656-71.722656-52.496093-12.621094c-27.800781-7.945313-57.695313-3.003906-81.46875 13.449218l-41.972657 29.054688c-19.472656 13.480469-30.378906 36.230469-28.691406 59.851562l18.261719 64.929688c1.742187 6.1875 5.984375 11.136719 11.433594 13.9375l31.308593-31.308594-5.640624-41.917968c1-11.023438 8.21875-23.175782 18.714843-26.675782zm0 0" fill="#fbce9d"/><path d="m426.675781 153.59375h-14.523437c-2.875 0-7.492188-.621094-10.265625-1.371094-26.792969-7.316406-120.277344-32.761718-120.277344-32.761718l-81.015625 81.015624 35.796875 21.820313c0 7.78125-20.667969 8.21875-25.597656 8.535156-4.875.304688-9.976563.332031-15.140625.28125-5.332032-.070312-10.707032-.179687-16.101563-.273437-.496093-.007813-.988281-.027344-1.503906-.019532-7.378906-.109374-14.699219-.09375-21.5625.640626-13.710937 1.460937-28.066406 7.125-33.867187 20.457031-2.585938 5.9375-3.996094 12.695312-4.761719 18.3125-1 7.269531 3.027343 14.351562 9.871093 16.996093.0625.027344.121094.042969.179688.070313.238281.09375.46875.167969.71875.261719 1.320312.488281 2.652344.914062 4.035156 1.289062.453125.128906.878906.238282 1.332032.351563 1.289062.304687 2.535156.492187 3.777343.628906.417969.042969.847657.128906 1.257813.148437 1.328125.066407 2.625.03125 3.820312-.199218 7.84375-1.5 15.566406-3.523438 23.542969-3.855469 27.367187-1.152344 54.84375.171875 81.886719 4.488281 18.261718 2.917969 36.898437 6.945313 53.792968 14.695313 10.582032 4.855469 20.242188 9.667969 32.035157 10.769531 9.566406.894531 19.234375-.300781 28.417969-3.082031 15.222656-4.609375 29.300781-13.304688 40.941406-24.046875 4.992187-4.609375 11.527344-7.152344 18.320312-7.152344h81.691406v-128zm0 0" fill="#fbce9d"/><path d="m335.371094 25.226562-284.128906 284.128907c1.921874.484375 3.832031 1.152343 5.675781 2.191406 5.425781 3.070313 10.34375 7.074219 14.890625 11.324219 4.335937 4.042968 3.804687 4.191406 8.046875 6.136718l43.578125-43.589843 54.605468-54.605469 179.175782-179.15625c-7.953125-8.191406-15.070313-17.195312-21.84375-26.429688zm0 0" fill="#7383bf"/><path d="m85.34375 324.261719-25.96875-23.039063-25.234375 25.230469-25.597656 49.742187 49.730469-25.601562zm0 0" fill="#efce4a"/><path d="m316.476562 44.121094 24.132813 24.132812 30.601563-30.59375c6.664062-6.664062 6.664062-17.464844 0-24.132812-6.667969-6.664063-17.46875-6.664063-24.132813 0zm0 0" fill="#556080"/><path d="m236.390625 222.296875c0 7.78125-20.667969 8.21875-25.597656 8.535156-4.875.304688-9.976563.332031-15.140625.28125-5.332032-.070312-10.707032-.179687-16.101563-.273437-.496093-.007813-.988281-.027344-1.503906-.019532-7.378906-.109374-14.699219-.09375-21.5625.640626-13.710937 1.460937-28.066406 7.125-33.867187 20.457031-2.585938 5.9375-3.996094 12.695312-4.761719 18.3125-1 7.269531 3.027343 14.351562 9.863281 16.996093.058594.027344.121094.042969.179688.070313.238281.09375.46875.167969.714843.261719 1.324219.488281 2.65625.914062 4.039063 1.289062.453125.128906.878906.238282 1.332031.351563 1.285156.304687 2.53125.492187 3.777344.628906.417969.042969.847656.128906 1.253906.148437 1.332031.066407 2.628906.03125 3.824219-.199218 7.832031-1.5 15.566406-3.523438 23.542968-3.855469 27.375-1.152344 54.84375.171875 81.886719 4.488281zm0 0" fill="#fbce9d"/><g fill="#4d007e"><path d="m340.609375 76.796875c-2.261719 0-4.4375-.898437-6.035156-2.503906l-24.132813-24.140625c-3.335937-3.335938-3.335937-8.738282 0-12.066406l30.601563-30.589844c9.667969-9.675782 26.53125-9.675782 36.207031 0 4.832031 4.828125 7.492188 11.265625 7.492188 18.097656 0 6.835938-2.660157 13.269531-7.5 18.109375l-30.601563 30.589844c-1.59375 1.597656-3.769531 2.503906-6.03125 2.503906zm-12.066406-32.675781 12.066406 12.074218 24.566406-24.566406c1.613281-1.613281 2.5-3.753906 2.5-6.035156 0-2.277344-.886719-4.417969-2.5-6.03125-3.226562-3.234375-8.847656-3.226562-12.066406 0zm0 0"/><path d="m8.542969 384.730469c-2.210938 0-4.402344-.863281-6.042969-2.5-2.628906-2.621094-3.25-6.640625-1.550781-9.941407l25.597656-49.742187c.402344-.785156.929687-1.503906 1.554687-2.132813l312.933594-312.917968c9.976563-9.984375 26.214844-9.992188 36.207032 0 9.984374 9.976562 9.984374 26.222656 0 36.199218l-193.152344 193.152344c-1.628906 1.628906-3.917969 2.625-6.160156 2.5-7.910157-.105468-14.449219-.0625-20.539063.585938-7.9375.855468-21.984375 3.96875-26.949219 15.378906-3.003906 6.894531-4.285156 15.804688-4.753906 21.726562.4375.203126.886719.425782 1.355469.648438 2.527343 1.175781 4.320312 3.507812 4.804687 6.246094.488282 2.746094-.398437 5.546875-2.371094 7.515625l-65.167968 65.171875c-.625.621094-1.339844 1.152344-2.132813 1.550781l-49.734375 25.601563c-1.238281.648437-2.566406.957031-3.898437.957031zm32.570312-53.179688-12.800781 24.863281 24.867188-12.796874 56.722656-56.730469c-.972656-1.410157-1.519532-3.089844-1.519532-4.847657 0-.539062.035157-9.609374 2.21875-19.976562zm318.03125-314.488281c-2.1875 0-4.378906.835938-6.042969 2.492188l-204.457031 204.464843c2.226563-.453125 4.539063-.800781 6.9375-1.058593 5.9375-.628907 12.003907-.75 18.976563-.722657l190.617187-190.609375c1.605469-1.613281 2.492188-3.753906 2.492188-6.035156 0-2.277344-.886719-4.417969-2.492188-6.03125-1.664062-1.664062-3.847656-2.5-6.03125-2.5zm0 0"/><path d="m81.066406 288.0625c-1.320312 0-2.652344-.304688-3.890625-.9375-7.679687-3.933594-13.421875-10.941406-15.753906-19.207031l-18.257813-64.941407c-.15625-.554687-.257812-1.125-.300781-1.699218-1.894531-26.492188 10.496094-52.339844 32.339844-67.472656l41.976563-29.054688c25.976562-17.980469 58.292968-23.320312 88.679687-14.632812l46.15625 12.472656c2.933594.796875 5.230469 3.097656 6.015625 6.042968.785156 2.945313-.058594 6.074219-2.210938 8.234376l-71.722656 71.722656c-2.898437 2.894531-7.457031 3.320312-10.835937 1.023437l-9.933594-6.765625c-4.933594-3.292968-11.066406-4.113281-16.757813-2.210937l-18.03125 6.972656c-.121093.042969-.25.09375-.367187.136719-6.238281 2.082031-11.742187 10.085937-12.816406 18.464844l5.503906 40.890624c.355469 2.636719-.539063 5.292969-2.425781 7.167969l-31.308594 31.308594c-1.664062 1.625-3.847656 2.484375-6.058594 2.484375zm-21.230468-88.847656 18.015624 64.074218c.503907 1.785157 1.363282 3.441407 2.5 4.882813l22.996094-22.996094-5.078125-37.726562c-.085937-.632813-.09375-1.273438-.042969-1.910157 1.195313-13.167968 9.925782-29.015624 24.3125-33.929687l18.234376-7.039063c11.101562-3.703124 22.65625-2.160156 32.070312 4.113282l4.164062 2.839844 56.300782-56.304688-32.039063-8.660156c-25.558593-7.304688-52.636719-2.832032-74.386719 12.230468l-41.976562 29.054688c-16.65625 11.535156-26.222656 31.15625-25.070312 51.371094zm65.621093-19.585938h.085938zm0 0"/><path d="m340.464844 324.695312c-2.398438 0-4.78125-.109374-7.152344-.332031-12.355469-1.152343-22.5625-5.863281-32.417969-10.410156l-2.378906-1.09375c-17.136719-7.859375-36.566406-11.621094-51.585937-14.027344-25.523438-4.078125-52.515626-5.53125-80.214844-4.386719-5.339844.230469-10.757813 1.359376-16.484375 2.542969-1.929688.402344-3.859375.804688-5.785157 1.167969-1.75.335938-3.660156.453125-5.855468.335938-.246094-.007813-1.289063-.121094-1.535156-.15625-1.785157-.1875-3.394532-.441407-5.070313-.84375l-1.621094-.425782c-1.59375-.4375-3.148437-.929687-4.691406-1.503906-.035156-.007812-.792969-.289062-.828125-.304688-6.648438-2.550781-12.050781-5.753906-12.28125-5.890624-2.585938-1.535157-4.171875-4.324219-4.171875-7.328126 0-.769531.070313-19.011718 6.402344-33.535156 6.234375-14.328125 20.726562-23.398437 40.789062-25.53125 6.945313-.734375 14.042969-.796875 22.59375-.691406l17.589844.289062c4.90625.042969 9.8125.023438 14.488281-.265624l1.511719-.085938c3.402344-.179688 6.152344-.417969 8.359375-.691406l-18.164062-12.390625c-2.101563-1.421875-3.457032-3.71875-3.695313-6.253907-.242187-2.523437.664063-5.035156 2.464844-6.824218l81.015625-81.015625c2.160156-2.167969 5.332031-2.996094 8.277344-2.203125l118.367187 32.289062c.347656.101563 1.550781.035156 2.363281-.007812.828125-.042969 1.664063-.078125 2.507813-.078125h90.214843c4.710938 0 8.53125 3.824219 8.53125 8.535156v128c0 4.710937-3.820312 8.53125-8.53125 8.53125h-81.691406c-4.523437 0-9.554687 2.203125-13.804687 6.042969-12.964844 11.632812-27.820313 20.191406-42.992188 24.78125-8.21875 2.507812-16.445312 3.761718-24.523437 3.761718zm-155.519532-47.707031c22.21875 0 43.894532 1.664063 64.671876 4.980469 16.09375 2.570312 36.992187 6.648438 56.003906 15.363281l2.425781 1.117188c9.335937 4.308593 17.40625 8.027343 26.851563 8.917969 8.125.75 16.605468-.171876 25.148437-2.757813 12.800781-3.875 25.421875-11.179687 36.515625-21.136719 7.441406-6.714844 16.398438-10.429687 25.222656-10.429687h73.15625v-110.933594l-83.328125.0625c-2.113281.101563-4.734375.238281-7.722656-.574219l-113.578125-30.972656-70.230469 70.21875 21.113281 14.394531c2.328126 1.589844 3.730469 4.234375 3.730469 7.050781 0 15.273438-21.785156 16.417969-32.257812 16.972657l-1.332031.078125c-5.425782.339844-11.023438.339844-15.769532.296875l-17.449218-.289063c-8.132813-.113281-14.644532-.0625-20.734376.585938-7.9375.855468-21.984374 3.96875-26.949218 15.378906-3.003906 6.894531-4.277344 15.796875-4.746094 21.707031 1.527344.742188 3.335938 1.5625 5.265625 2.304688 1.707031.625 2.816406.972656 3.960937 1.289062l1.058594.28125c.894532.214844 1.78125.351563 2.667969.4375.027344 0 .949219.117188.972656.125.878907.042969 1.402344-.015625 1.621094-.066406 1.84375-.359375 3.679687-.734375 5.515625-1.117187 6.140625-1.28125 12.5-2.605469 19.242188-2.886719 6.355468-.261719 12.679687-.398438 18.953124-.398438zm0 0"/><path d="m8.542969 384.730469c-2.210938 0-4.402344-.863281-6.042969-2.5-2.628906-2.621094-3.25-6.640625-1.550781-9.941407l25.597656-49.742187c.402344-.785156.929687-1.503906 1.554687-2.132813l25.230469-25.234374c3.195313-3.199219 8.320313-3.34375 11.699219-.347657l25.96875 23.039063c1.773438 1.578125 2.816406 3.8125 2.867188 6.1875.058593 2.371094-.878907 4.65625-2.578126 6.3125l-27.066406 26.335937c-.605468.585938-1.296875 1.082031-2.046875 1.464844l-49.734375 25.601563c-1.238281.648437-2.566406.957031-3.898437.957031zm32.570312-53.179688-12.800781 24.863281 24.917969-12.824218 19.566406-19.039063-13.078125-11.605469zm0 0"/></g></svg>