<svg height="512" viewBox="0 0 512 512" width="512" xmlns="http://www.w3.org/2000/svg"><g id="Filled_Outline" data-name="Filled Outline"><path d="m24 128h464a0 0 0 0 1 0 0v344a16 16 0 0 1 -16 16h-432a16 16 0 0 1 -16-16v-344a0 0 0 0 1 0 0z" fill="#cfd8dc"/><path d="m40 56h432a16 16 0 0 1 16 16v64a0 0 0 0 1 0 0h-464a0 0 0 0 1 0 0v-64a16 16 0 0 1 16-16z" fill="#546e7a"/><g fill="#253238"><rect height="64" rx="16" width="32" x="72" y="24"/><rect height="64" rx="16" width="32" x="296" y="24"/><rect height="64" rx="16" width="32" x="184" y="24"/><rect height="64" rx="16" width="32" x="408" y="24"/></g><path d="m256 184 18.196 36.868 40.686 5.912-29.441 28.698 6.95 40.522-36.391-19.132-36.391 19.132 6.95-40.522-29.441-28.698 40.686-5.912z" fill="#d81c60"/><path d="m96.58 253.503 28.495 19.027 31.829-12.687-9.29 32.981 21.902 26.35-34.238 1.356-18.293 28.973-11.869-32.143-33.208-8.445 26.902-21.221z" fill="#fb8c00"/><path d="m415.329 253.503-28.496 19.027-31.829-12.687 9.291 32.981-21.902 26.35 34.237 1.356 18.293 28.973 11.87-32.143 33.207-8.445-26.902-21.221z" fill="#fbc02e"/><path d="m217.963 258.271-6.239 36.376a8 8 0 0 0 11.608 8.434l32.668-17.175 32.668 17.175a8 8 0 0 0 11.608-8.434l-6.239-36.376 26.429-25.762a8 8 0 0 0 -4.434-13.646l-36.524-5.307-16.334-33.1a8 8 0 0 0 -14.348 0l-16.334 33.1-36.524 5.307a8 8 0 0 0 -4.434 13.646zm20.992-29.486a8 8 0 0 0 6.024-4.376l11.021-22.332 11.021 22.332a8 8 0 0 0 6.024 4.376l24.645 3.581-17.833 17.384a8 8 0 0 0 -2.3 7.081l4.21 24.545-22.043-11.589a8 8 0 0 0 -7.446 0l-22.043 11.589 4.21-24.545a8 8 0 0 0 -2.3-7.081l-17.835-17.384z"/><path d="m69.937 316.668 29.131 7.408 10.412 28.2a8 8 0 0 0 6.669 5.185 8.155 8.155 0 0 0 .838.044 8 8 0 0 0 6.763-3.729l16.05-25.419 30.036-1.189a8 8 0 0 0 5.835-13.107l-19.213-23.117 8.149-28.932a8 8 0 0 0 -10.662-9.6l-27.922 11.13-25-16.692a8 8 0 0 0 -12.423 7.173l1.956 30-23.6 18.615a8 8 0 0 0 2.983 14.034zm33.828-22.692a8 8 0 0 0 3.028-6.8l-1.175-18.017 15.015 10.027a8 8 0 0 0 7.405.778l16.771-6.686-4.9 17.378a8 8 0 0 0 1.547 7.283l11.544 13.883-18.041.714a8 8 0 0 0 -6.447 3.723l-9.639 15.266-6.254-16.937a8 8 0 0 0 -5.534-4.982l-17.5-4.45z"/><path d="m248 304h16v144h-16z"/><path d="m156.116 337.14-8.268 13.7c.093.058 9.51 5.933 21.6 21.016 11.2 13.977 27.04 38.933 38.893 78.445l15.326-4.6c-24.612-82.024-65.809-107.515-67.551-108.561z"/><path d="m342.076 327.168 30.035 1.189 16.048 25.417a8 8 0 0 0 6.762 3.729 8.174 8.174 0 0 0 .839-.044 8 8 0 0 0 6.668-5.185l10.412-28.2 29.132-7.408a8 8 0 0 0 2.983-14.034l-23.6-18.615 1.957-30a8 8 0 0 0 -12.426-7.173l-25 16.692-27.921-11.13a8 8 0 0 0 -10.663 9.6l8.15 28.932-19.213 23.117a8 8 0 0 0 5.835 13.107zm29.924-36.514-4.9-17.378 16.771 6.686a8 8 0 0 0 7.4-.778l15.016-10.027-1.176 18.017a8 8 0 0 0 3.029 6.8l14.174 11.18-17.5 4.45a8 8 0 0 0 -5.533 4.982l-6.254 16.937-9.627-15.264a8 8 0 0 0 -6.448-3.723l-18.041-.714 11.541-13.885a8 8 0 0 0 1.548-7.283z"/><path d="m359.909 344-4.116-6.86c-1.742 1.046-42.939 26.537-67.547 108.561l15.325 4.6c22.648-75.492 60.114-99.23 60.49-99.461z"/><path d="m128 168h16v16h-16z"/><path d="m368 200h16v16h-16z"/><path d="m408 168h16v16h-16z"/><path d="m136 408h16v16h-16z"/><path d="m360 416h16v16h-16z"/><path d="m424 376h16v16h-16z"/><path d="m72 376h16v16h-16z"/><path d="m72 200h16v16h-16z"/><path d="m472 48h-24v-8a24 24 0 0 0 -48 0v8h-64v-8a24 24 0 0 0 -48 0v8h-64v-8a24 24 0 0 0 -48 0v8h-64v-8a24 24 0 0 0 -48 0v8h-24a24.028 24.028 0 0 0 -24 24v400a24.028 24.028 0 0 0 24 24h432a24.028 24.028 0 0 0 24-24v-400a24.028 24.028 0 0 0 -24-24zm-56-8a8 8 0 0 1 16 0v32a8 8 0 0 1 -16 0zm-112 0a8 8 0 0 1 16 0v32a8 8 0 0 1 -16 0zm-112 0a8 8 0 0 1 16 0v32a8 8 0 0 1 -16 0zm-112 0a8 8 0 0 1 16 0v32a8 8 0 0 1 -16 0zm400 432a8.009 8.009 0 0 1 -8 8h-432a8.009 8.009 0 0 1 -8-8v-328h448zm0-344h-448v-56a8.009 8.009 0 0 1 8-8h24v8a24 24 0 0 0 48 0v-8h64v8a24 24 0 0 0 48 0v-8h64v8a24 24 0 0 0 48 0v-8h64v8a24 24 0 0 0 48 0v-8h24a8.009 8.009 0 0 1 8 8z"/></g></svg>