<svg height="512" viewBox="0 0 64 64" width="512" xmlns="http://www.w3.org/2000/svg"><g id="people-coronavirus-tempurature-thermometer-covid19"><path d="m38 3h-8a4 4 0 0 0 -4 4 2 2 0 0 0 -2-2h-2a4 4 0 0 0 -4 4v14h28v-12a8 8 0 0 0 -8-8z" fill="#414042"/><path d="m24 5h-2a4 4 0 0 0 -4 4v14h8v-16a2 2 0 0 0 -2-2z" fill="#58595b"/><path d="m55.9 50.005a10 10 0 0 0 -9.95-9.005h-6.62c-1.23 3.53-4.05 6-7.33 6s-6.095-2.47-7.33-6h-6.058a10 10 0 0 0 -9.889 8.517l-1.723 11.483h50z" fill="#006df0"/><path d="m20 61h-2v-6a1 1 0 0 1 1-1 1 1 0 0 1 1 1z" fill="#005ece"/><path d="m46 61h-2v-6a1 1 0 0 1 1-1 1 1 0 0 1 1 1z" fill="#005ece"/><path d="m55.9 50.005a10 10 0 0 0 -9.95-9.005h-2a10 10 0 0 1 9.95 9.005l1.1 10.995h2z" fill="#005ece"/><path d="m15 19c0-1.105-2-4-2-4s-2 2.895-2 4a2 2 0 0 0 4 0z" fill="#57a4ff"/><path d="m37 14c0-1.105-2-4-2-4s-2 2.895-2 4a2 2 0 0 0 4 0z" fill="#9bc9ff"/><path d="m14 38a3 3 0 0 0 3-3c0-1.657-3-5-3-5s-3 3.343-3 5a3 3 0 0 0 3 3z" fill="#57a4ff"/><path d="m42 21h3a2 2 0 0 1 2 2v3a2 2 0 0 1 -2 2h-3a0 0 0 0 1 0 0v-7a0 0 0 0 1 0 0z" fill="#ffac96"/><path d="m17 21h3a2 2 0 0 1 2 2v3a2 2 0 0 1 -2 2h-3a0 0 0 0 1 0 0v-7a0 0 0 0 1 0 0z" fill="#ffac96" transform="matrix(-1 0 0 -1 39 49)"/><path d="m32 47c3.28 0 6.095-2.47 7.33-6h-.33c-.027 0-.052-.007-.078-.008a2 2 0 0 1 -1.922-1.992v-3.21a10.936 10.936 0 0 1 -10 0v3.21a2 2 0 0 1 -1.922 1.992c-.026 0-.051.008-.078.008h-.33c1.235 3.53 4.05 6 7.33 6z" fill="#ffac96"/><path d="m37 37.79v-2a10.936 10.936 0 0 1 -10 0v2a10.936 10.936 0 0 0 10 0z" fill="#ff9478"/><path d="m61 46a7 7 0 1 1 -10-6.32v-33.68a3 3 0 0 1 6 0v33.68a6.97 6.97 0 0 1 4 6.32z" fill="#ff9811"/><path d="m57 39.68v-33.68a2.973 2.973 0 0 0 -4-2.816 2.963 2.963 0 0 1 2 2.816v33.68a6.992 6.992 0 0 1 -2 13.241 6.993 6.993 0 0 0 4-13.241z" fill="#ee8700"/><circle cx="54" cy="46" fill="#d80027" r="2"/><path d="m25 13h14a4 4 0 0 1 4 4v9a11 11 0 0 1 -11 11 11 11 0 0 1 -11-11v-9a4 4 0 0 1 4-4z" fill="#ffbcab"/><path d="m33 14a2 2 0 0 0 4 0c0-1.105-2-4-2-4s-2 2.9-2 4z" fill="#2488ff"/><path d="m34.294 32.708a1 1 0 1 0 1.412-1.416l-.171-.17a5 5 0 0 0 -7.069 0l-.172.171a1 1 0 1 0 1.412 1.416l.173-.172a3.069 3.069 0 0 1 4.243 0z" fill="#6d6e71"/><path d="m30.212 27.615a1 1 0 0 0 .788.385h2a1 1 0 0 0 0-2h-.719l.689-2.757a1 1 0 0 0 -1.94-.486l-1 4a1 1 0 0 0 .182.858z" fill="#6d6e71"/><path d="m30.71 19.71-.24.24a7.523 7.523 0 0 1 -1.47 1.12v.93a1 1 0 0 1 -2 0v-.16a7.312 7.312 0 0 1 -1.49.16h-.51a1 1 0 0 1 0-2h.51a4.976 4.976 0 0 0 3.54-1.46l.24-.25a1 1 0 0 1 1.42 1.42z" fill="#6d6e71"/><path d="m40 21a1 1 0 0 1 -1 1h-.51a7.312 7.312 0 0 1 -1.49-.16v.16a1 1 0 0 1 -2 0v-.93a7.176 7.176 0 0 1 -1.46-1.12l-.25-.24a1 1 0 0 1 1.42-1.42l.24.25a4.976 4.976 0 0 0 3.54 1.46h.51a1 1 0 0 1 1 1z" fill="#6d6e71"/><g fill="#aa6100"><path d="m54 8h3v2h-3z"/><path d="m54 12h3v2h-3z"/><path d="m54 16h3v2h-3z"/><path d="m54 20h3v2h-3z"/><path d="m54 24h3v2h-3z"/><path d="m54 28h3v2h-3z"/><path d="m54 32h3v2h-3z"/><path d="m54 36h3v2h-3z"/></g><path d="m53 16h2v30h-2z" fill="#d80027"/></g></svg>