<svg id="Capa_1" enable-background="new 0 0 512 512" height="512" viewBox="0 0 512 512" width="512" xmlns="http://www.w3.org/2000/svg"><g><g><g><path d="m103.321 277.817c7.11-7.279 11.497-17.228 11.497-28.206 0-22.3-18.078-40.378-40.378-40.378s-40.378 18.078-40.378 40.378c0 11.041 4.436 21.043 11.618 28.333-17.99 4.855-37.68 16.029-37.68 41.698v53.767c0 8.939 7.247 16.186 16.186 16.186s16.186-7.247 16.186-16.186v72.679c0 9.489 7.692 17.181 17.181 17.181s17.181-7.692 17.181-17.181c0 9.489 7.692 17.181 17.181 17.181s17.181-7.692 17.181-17.181v-72.679c0 8.939 7.247 16.186 16.186 16.186 8.939 0 16.186-7.247 16.186-16.186v-53.767c-.001-25.892-20.033-37.038-38.147-41.825z" fill="#ffa6d4"/><g><path d="m91.915 445.27c-5.401 0-10.22-2.492-13.369-6.389-1.94-2.401-5.683-2.401-7.623 0-3.15 3.897-7.969 6.389-13.369 6.389-9.489 0-17.181-7.692-17.181-17.181v17.55c0 9.63 7.881 17.808 17.509 17.628 9.337-.175 16.853-7.799 16.853-17.178 0 9.379 7.515 17.003 16.853 17.178 9.628.18 17.509-7.998 17.509-17.628v-17.55c-.001 9.488-7.694 17.181-17.182 17.181z" fill="#f690d2"/></g><path d="m40.372 346.805v22.139s20.352 22.14 34.362 22.14 34.362-22.14 34.362-22.14v-22.139z" fill="#eef2f5"/><path d="m74.734 373.084c-14.01 0-34.362-22.14-34.362-22.14v18s20.352 22.14 34.362 22.14 34.362-22.14 34.362-22.14v-18s-20.352 22.14-34.362 22.14z" fill="#deeaf3"/><path d="m105.078 223.328c19.535-.19 21.767-37.657 0-37.657-16.744 0-30.638 23.563-30.638 23.563 12.258 0 23.233 5.47 30.638 14.094z" fill="#f95750"/><path d="m105.078 223.328c3.21-.031 5.942-1.083 8.188-2.795-3.609-12.671-13.245-22.794-25.618-27.077-7.946 6.863-13.209 15.778-13.209 15.778 12.259 0 23.234 5.47 30.639 14.094z" fill="#e84642"/><path d="m43.802 223.328c-19.535-.19-21.767-37.657 0-37.657 16.744 0 30.638 23.563 30.638 23.563-12.259 0-23.233 5.47-30.638 14.094z" fill="#f95750"/><path d="m61.231 193.455c-12.372 4.283-22.008 14.406-25.618 27.077 2.246 1.713 4.978 2.764 8.188 2.795 7.405-8.624 18.379-14.094 30.638-14.094.001.001-5.262-8.914-13.208-15.778z" fill="#e84642"/></g><path d="m324.233 328.95-9.357-85.776c-2.383-21.847-17.09-40.389-37.82-47.684 7.936-8.055 12.837-19.106 12.837-31.307 0-24.641-20.3-44.617-44.941-44.617s-44.941 19.976-44.941 44.617c0 12.2 4.902 23.252 12.837 31.307-20.73 7.295-35.437 25.837-37.82 47.684l-9.357 85.776c-1.04 9.531 6.426 17.855 16.013 17.855 8.22 0 15.122-6.189 16.013-14.361l-5.407 49.57h14.692v62.271c0 10.485 8.5 18.984 18.984 18.984 10.485 0 18.984-8.5 18.984-18.984 0 10.485 8.5 18.984 18.984 18.984 10.485 0 18.984-8.5 18.984-18.984v-62.271h14.692l-5.407-49.571c.891 8.172 7.793 14.362 16.013 14.362 9.591 0 17.056-8.324 16.017-17.855z" fill="#ffdd91"/><g><path d="m263.937 445.27c-6.103 0-11.533-2.879-15.006-7.353-2.03-2.615-5.928-2.615-7.958 0-3.473 4.474-8.903 7.353-15.005 7.353-10.485 0-18.984-8.5-18.984-18.984v17.545c0 10.294 8.005 19.061 18.292 19.427 10.8.384 19.676-8.258 19.676-18.972 0 10.715 8.876 19.356 19.677 18.972 10.287-.366 18.292-9.133 18.292-19.427v-17.545c0 10.484-8.5 18.984-18.984 18.984z" fill="#f9cd80"/></g><path d="m503.903 284.516-10.933-112.11c-1.953-21.816-16.466-40.482-37.127-47.753 7.936-8.054 12.837-19.106 12.837-31.307 0-25.216-19.231-44.584-44.941-44.584-25.266 0-44.941 19.368-44.941 44.584 0 12.2 4.902 23.252 12.837 31.307-20.661 7.27-35.174 25.937-37.127 47.753l-10.933 112.11c-1.04 9.531 6.426 17.854 16.013 17.854 8.221-.001 15.122-6.191 16.013-14.363l-4.524 49.703h14.692v106.12c0 10.294 8.005 19.061 18.292 19.427 10.8.384 19.677-8.258 19.677-18.972 0 10.715 8.876 19.356 19.677 18.972 10.288-.366 18.292-9.133 18.292-19.427v-106.121h14.693l-4.524-49.703c.891 8.172 7.793 14.362 16.013 14.363 9.588.001 17.054-8.322 16.014-17.853z" fill="#b1e6a0"/><g><path d="m443.415 445.257c-6.408.228-12.139-2.722-15.741-7.397-1.986-2.577-5.886-2.577-7.872 0-3.601 4.675-9.332 7.624-15.74 7.397-10.288-.366-18.292-9.133-18.292-19.427v18c0 10.294 8.005 19.061 18.292 19.427 10.8.384 19.677-8.258 19.677-18.972 0 10.715 8.876 19.356 19.677 18.972 10.287-.366 18.292-9.133 18.292-19.427v-18c0 10.294-8.005 19.062-18.293 19.427z" fill="#96d5a9"/></g></g><g><path d="m115.376 274.017c4.354-7.328 6.679-15.715 6.679-24.434 0-8.071-2.012-15.678-5.548-22.36 7.461-5.027 11.363-14.648 11.319-23.833-.073-14.948-9.549-25.387-23.044-25.387-13.207 0-24.147 10.192-30.698 18.182-6.551-7.99-17.491-18.182-30.698-18.182-13.495 0-22.972 10.439-23.044 25.387-.056 11.381 4.867 19.422 11.373 23.727-3.571 6.707-5.603 14.352-5.603 22.466 0 8.802 2.365 17.258 6.792 24.63-21.32 8.757-32.904 24.634-32.904 45.536v12.77c0 4.151 3.364 7.515 7.515 7.515 4.15 0 7.515-3.364 7.515-7.515v-12.77c0-17.143 10.833-28.758 32.196-34.523 2.58-.697 4.596-2.71 5.295-5.29s-.024-5.336-1.9-7.24c-6.113-6.204-9.479-14.414-9.479-23.114 0-18.164 14.778-32.942 32.942-32.942s32.942 14.778 32.942 32.942c0 8.646-3.331 16.817-9.381 23.011-1.868 1.912-2.579 4.673-1.868 7.25s2.739 4.582 5.323 5.265c21.65 5.721 32.626 17.377 32.626 34.641v53.872c0 4.799-3.904 8.703-8.703 8.703-4.798 0-8.702-3.904-8.702-8.703v-48.651c0-4.151-3.364-7.515-7.515-7.515-4.15 0-7.515 3.364-7.515 7.515v14.481h-53.827v-14.481c0-4.151-3.364-7.515-7.515-7.515-4.15 0-7.515 3.364-7.515 7.515v48.652c0 4.799-3.904 8.703-8.703 8.703s-8.703-3.904-8.703-8.703v-11.044c0-4.151-3.364-7.515-7.515-7.515-4.15 0-7.515 3.364-7.515 7.515v11.044c0 13.086 10.646 23.733 23.732 23.733 3.071 0 6.007-.586 8.703-1.653v50.741c0 13.636 11.093 24.729 24.729 24.729 6.685 0 12.759-2.666 17.215-6.991 4.455 4.325 10.529 6.991 17.214 6.991 13.636 0 24.729-11.093 24.729-24.729v-50.741c2.696 1.067 5.632 1.653 8.703 1.653 13.086 0 23.732-10.647 23.732-23.733v-53.872c.002-21.07-11.751-37.017-33.379-45.733zm-74.596-58.912c-3.918-1.892-5.428-7.723-5.409-11.643.047-9.678 6.147-10.43 8.015-10.43 6.019 0 12.364 5.221 17.163 10.537-7.519 2.215-14.273 6.225-19.769 11.536zm66.608 0c-5.502-5.317-12.265-9.33-19.796-11.544 4.786-5.314 11.129-10.53 17.189-10.53 1.868 0 7.968.752 8.015 10.431.02 3.919-1.489 9.75-5.408 11.643zm-40.524 231.338c0 5.348-4.351 9.699-9.7 9.699-5.348 0-9.7-4.351-9.7-9.699v-60.05c5.704 4.565 12.577 9.086 19.4 11.204zm34.429 0c0 5.348-4.351 9.699-9.7 9.699-5.348 0-9.7-4.351-9.7-9.699v-48.846c6.823-2.118 13.695-6.639 19.399-11.204v60.05zm0-80.285c-11.811 12.16-22.709 17.658-26.914 17.658s-15.105-5.499-26.914-17.658v-11.678h53.828z"/><path d="m327.461 288.171c-.45-4.126-4.156-7.106-8.285-6.656-4.126.45-7.105 4.16-6.655 8.286l4.373 40.089c.269 2.468-.496 4.845-2.154 6.694s-3.938 2.867-6.421 2.867c-4.4 0-8.08-3.292-8.571-7.661l-9.307-85.316c-.45-4.126-4.15-7.106-8.285-6.656-4.126.45-7.105 4.16-6.655 8.286l13.812 126.625h-6.342c-4.15 0-7.515 3.364-7.515 7.515v62.393c0 6.344-5.162 11.507-11.507 11.507s-11.507-5.162-11.507-11.507v-62.393c0-4.151-3.364-7.515-7.515-7.515-4.15 0-7.515 3.364-7.515 7.515v62.393c0 6.344-5.162 11.507-11.507 11.507s-11.507-5.162-11.507-11.507v-62.393c0-4.151-3.365-7.515-7.515-7.515h-6.342l13.812-126.625c.45-4.126-2.529-7.836-6.655-8.286-4.13-.453-7.835 2.53-8.285 6.656l-9.306 85.31c-.488 4.373-4.17 7.668-8.572 7.668-2.483 0-4.763-1.018-6.421-2.866-1.658-1.849-2.423-4.226-2.154-6.695l9.375-85.943c2.062-18.902 14.983-35.192 32.918-41.504 2.426-.854 4.247-2.889 4.827-5.396.58-2.506-.163-5.134-1.968-6.967-6.9-7.004-10.701-16.271-10.701-26.094 0-20.506 16.829-37.189 37.514-37.189s37.514 16.683 37.514 37.189c0 9.823-3.8 19.09-10.701 26.094-1.805 1.833-2.548 4.461-1.968 6.967.579 2.507 2.401 4.542 4.827 5.396 17.935 6.311 30.856 22.602 32.919 41.504l1.747 16.016c.45 4.125 4.16 7.115 8.285 6.656 4.126-.45 7.105-4.159 6.655-8.286l-1.747-16.016c-2.308-21.156-15.062-39.802-33.431-49.843 5.495-8.406 8.444-18.231 8.444-28.487 0-28.793-23.571-52.218-52.544-52.218s-52.544 23.424-52.544 52.218c0 10.256 2.949 20.08 8.444 28.487-18.369 10.041-31.123 28.686-33.431 49.843l-9.375 85.943c-.728 6.671 1.425 13.363 5.906 18.359 4.48 4.996 10.899 7.861 17.609 7.861 2.137 0 4.21-.283 6.185-.815l-3.028 27.763c-.232 2.122.451 4.243 1.876 5.833 1.426 1.589 3.459 2.497 5.594 2.497h7.206v54.878c0 14.632 11.904 26.536 26.536 26.536 7.452 0 14.197-3.088 19.021-8.051 4.825 4.963 11.569 8.051 19.021 8.051 14.632 0 26.536-11.904 26.536-26.536v-54.878h7.206c2.135 0 4.169-.908 5.594-2.497 1.425-1.59 2.108-3.71 1.876-5.833l-3.028-27.763c1.975.532 4.049.815 6.185.815 6.711 0 13.129-2.865 17.609-7.861 4.481-4.996 6.634-11.688 5.906-18.359z"/><path d="m511.864 283.826-10.948-112.269c-1.903-21.253-14.408-39.977-32.756-50.049 5.497-8.407 8.449-18.235 8.449-28.494 0-14.264-5.35-27.452-15.064-37.133-9.741-9.706-23.051-15.053-37.479-15.053-29.464 0-52.544 22.923-52.544 52.186 0 10.259 2.951 20.086 8.449 28.494-18.347 10.071-30.853 28.787-32.75 49.991l-10.948 112.241c-.728 6.671 1.425 13.363 5.905 18.358 4.481 4.996 10.9 7.861 17.609 7.86 2.284 0 4.496-.323 6.593-.929l-2.565 28.141c-.191 2.103.51 4.19 1.935 5.748 1.424 1.56 3.438 2.448 5.549 2.448h7.206v98.813c0 14.616 11.234 26.466 25.575 26.974 7.277.264 14.158-2.378 19.387-7.422.202-.196.401-.393.596-.593.195.2.394.397.596.593 4.994 4.819 11.498 7.439 18.408 7.439.324 0 .651-.006.977-.018 14.341-.509 25.576-12.358 25.576-26.974v-33.341c0-4.151-3.365-7.515-7.515-7.515s-7.515 3.364-7.515 7.515v33.341c0 6.375-4.97 11.738-11.081 11.955-3.169.107-6.149-1.029-8.415-3.217-2.269-2.189-3.518-5.13-3.518-8.282v-106.782c0-4.151-3.365-7.515-7.515-7.515s-7.515 3.364-7.515 7.515v106.784c0 3.152-1.249 6.093-3.518 8.282-2.267 2.187-5.255 3.325-8.416 3.217-6.11-.217-11.08-5.58-11.08-11.955v-106.328c0-4.151-3.365-7.515-7.515-7.515h-6.491l13.975-153.341c.376-4.133-2.669-7.789-6.802-8.165-4.137-.383-7.789 2.668-8.166 6.801l-10.181 111.663c-.504 4.356-4.177 7.634-8.569 7.634-2.482 0-4.763-1.018-6.42-2.866-1.658-1.848-2.423-4.225-2.144-6.779l10.96-112.387c1.69-18.876 14.333-35.137 32.21-41.427 2.426-.854 4.247-2.89 4.827-5.396s-.163-5.135-1.969-6.967c-6.9-7.004-10.701-16.27-10.701-26.094 0-21.183 16.128-37.156 37.514-37.156 21.387 0 37.514 15.973 37.514 37.156 0 9.824-3.8 19.09-10.701 26.094-1.806 1.832-2.548 4.461-1.969 6.967s2.401 4.542 4.827 5.396c17.877 6.291 30.52 22.552 32.215 41.486l10.963 112.414c.269 2.468-.496 4.844-2.154 6.693-1.658 1.848-3.937 2.866-6.42 2.866-.001 0-.001 0-.001 0-4.391 0-8.064-3.278-8.568-7.634l-10.181-111.663c-.377-4.133-4.029-7.185-8.166-6.801-4.133.377-7.178 4.032-6.802 8.165l13.974 153.341h-6.491c-4.15 0-7.515 3.364-7.515 7.515v42.928c0 4.151 3.365 7.515 7.515 7.515s7.515-3.364 7.515-7.515v-35.414h7.206c2.112 0 4.126-.889 5.549-2.448 1.424-1.559 2.126-3.646 1.934-5.748l-2.565-28.141c2.096.606 4.309.929 6.592.929h.002c6.71 0 13.128-2.865 17.608-7.86 4.489-4.995 6.642-11.687 5.923-18.272z"/></g></g></svg>