<svg height="512pt" viewBox="0 0 512 512" width="512pt" xmlns="http://www.w3.org/2000/svg" xmlns:xlink="http://www.w3.org/1999/xlink"><linearGradient id="a" gradientUnits="userSpaceOnUse" x1="0" x2="512" y1="256" y2="256"><stop offset="0" stop-color="#00f38d"/><stop offset="1" stop-color="#009eff"/></linearGradient><path d="m512 256c0 141.386719-114.613281 256-256 256s-256-114.613281-256-256 114.613281-256 256-256 256 114.613281 256 256zm0 0" fill="url(#a)"/><g fill="#fff"><path d="m386.40625 189.769531h-32.242188v-105.789062h-196.328124v105.789062h-32.238282c-22.945312 0-41.613281 18.667969-41.613281 41.613281v107.78125c0 22.945313 18.667969 41.613282 41.613281 41.613282h32.238282v47.238281h196.328124v-47.234375h32.242188c22.945312 0 41.609375-18.667969 41.609375-41.613281v-107.785157c.003906-22.945312-18.664063-41.613281-41.609375-41.613281zm-198.570312-75.789062h136.328124v75.789062h-136.328124zm0 284.039062v-85.105469h136.328124v85.105469zm210.183593-58.851562c0 6.402343-5.210937 11.613281-11.613281 11.613281h-32.238281v-37.867188h18.933593v-30h-234.199218v30h18.933594v37.867188h-32.238282c-6.40625 0-11.613281-5.210938-11.613281-11.613281v-107.785157c0-6.402343 5.207031-11.613281 11.613281-11.613281h260.808594c6.402344 0 11.613281 5.210938 11.613281 11.613281zm0 0"/><path d="m212.753906 137.207031h86.492188v30h-86.492188zm0 0"/></g></svg>