<svg id="Filled" height="512" viewBox="0 0 512 512" width="512" xmlns="http://www.w3.org/2000/svg"><g><path d="m119.7 247.96v-8a32 32 0 0 0 -32-32 32 32 0 0 0 -32-32v64a32 32 0 0 0 -32-32v176l24 48v72.04h80v-72.04l11.174-18.624a90 90 0 0 0 12.826-46.305v-87.071a32 32 0 0 0 -32-32z" fill="#ffd4cf"/><path d="m456 168v-8a32 32 0 0 0 -32-32 32 32 0 0 0 -32-32v64a32 32 0 0 0 -32-32v176l24 48v152h80v-152l11.174-18.624a90 90 0 0 0 12.826-46.305v-87.071a32 32 0 0 0 -32-32z" fill="#fbb8b0"/><path d="m200 184v-128h2a30 30 0 0 1 30 30v-62h2a30 30 0 0 1 30 30v2h2a30 30 0 0 1 30 30v10h2a30 30 0 0 1 30 30v108.24a120.016 120.016 0 0 1 -7.64 42.135l-16.36 43.625v184h-88v-184l-31.2-46.808a100 100 0 0 1 -16.8-55.47v-73.722a29.276 29.276 0 0 1 28.707 23.534z" fill="#ae7069"/><path d="m288 416a24 24 0 0 0 -48 0 24 24 0 0 0 0 48 24 24 0 0 0 48 0 24 24 0 0 0 0-48z" fill="#f553a3"/><g><path d="m40 433.889v70.111h16v-72a7.994 7.994 0 0 0 -.845-3.578l-23.155-46.311v-42.111a12.013 12.013 0 0 1 12-12h42.987a32.054 32.054 0 0 1 -30.987 24v16a48.054 48.054 0 0 0 48-48 8 8 0 0 0 -8-8v-94.629a24.042 24.042 0 0 1 16 22.629v80h16v-62.629a24.042 24.042 0 0 1 16 22.629v87.071a82.029 82.029 0 0 1 -11.685 42.189l-11.175 18.624a8.009 8.009 0 0 0 -1.14 4.116v72h16v-69.784l10.035-16.724a98.027 98.027 0 0 0 13.965-50.421v-87.071a40.068 40.068 0 0 0 -32-39.2v-.8a40.067 40.067 0 0 0 -32.673-39.327 40.067 40.067 0 0 0 -39.327-32.673 8 8 0 0 0 -8 8v32.02a39.788 39.788 0 0 0 -24-8.02 8 8 0 0 0 -8 8v48h16v-38.629a24.042 24.042 0 0 1 16 22.629v72h-4a27.836 27.836 0 0 0 -12 2.7v-42.7h-16v64h.285a28.224 28.224 0 0 0 -.285 4v44a7.994 7.994 0 0 0 .845 3.578zm24-248.518a24.042 24.042 0 0 1 16 22.629v104h-16z"/><path d="m456 424h16v80h-16z"/><path d="m472 354.216 10.035-16.724a98.027 98.027 0 0 0 13.965-50.421v-87.071a40.068 40.068 0 0 0 -32-39.2v-.8a40.067 40.067 0 0 0 -32.673-39.327 40.067 40.067 0 0 0 -39.327-32.673 8 8 0 0 0 -8 8v32.02a39.788 39.788 0 0 0 -24-8.02 8 8 0 0 0 -8 8v128h.285a28.224 28.224 0 0 0 -.285 4v44a7.994 7.994 0 0 0 .845 3.578l23.155 46.311v150.111h16v-152a7.994 7.994 0 0 0 -.845-3.578l-23.155-46.311v-42.111a12.013 12.013 0 0 1 12-12h42.987a32.054 32.054 0 0 1 -30.987 24v16a48.054 48.054 0 0 0 48-48 8 8 0 0 0 -8-8v-94.629a24.042 24.042 0 0 1 16 22.629v80h16v-62.629a24.042 24.042 0 0 1 16 22.629v87.071a82.021 82.021 0 0 1 -11.686 42.189l-11.174 18.624a8.009 8.009 0 0 0 -1.14 4.116v56h16zm-104-119.516v-97.329a24.042 24.042 0 0 1 16 22.629v72h-4a27.836 27.836 0 0 0 -12 2.7zm32-2.7v-126.629a24.042 24.042 0 0 1 16 22.629v104z"/><path d="m256 120h16v72h-16z"/><path d="m336 216v-90a38.061 38.061 0 0 0 -32-37.526v-2.474a38.059 38.059 0 0 0 -32.411-37.589 38.059 38.059 0 0 0 -37.589-32.411h-2a8 8 0 0 0 -8 8v31.032a37.8 37.8 0 0 0 -22-7.032h-2a8 8 0 0 0 -8 8v88.793a37.225 37.225 0 0 0 -24-8.793 8 8 0 0 0 -8 8v73.723a107.652 107.652 0 0 0 18.139 59.907l29.861 44.792v5.01c-6.519 6.019-8 12.2-8 16.568 0 6.1 2.883 11.7 8 16.447v39.553h16v-30.05a98.255 98.255 0 0 0 32 5.987v9.076a32.116 32.116 0 0 0 -23.187 23.8 32.059 32.059 0 0 0 -24.813 31.187v64h16v-36.3a31.811 31.811 0 0 0 8.813 3.482 32.006 32.006 0 0 0 62.374 0q.408-.094.813-.2v33.018h16v-42.857a31.984 31.984 0 0 0 -16.813-52.33 32.116 32.116 0 0 0 -23.187-23.8v-9.6a92.282 92.282 0 0 0 24-5.464v22.051h16v-31.553c5.117-4.75 8-10.348 8-16.447 0-4.369-1.481-10.549-8-16.568v-5.981l15.85-42.267a127.564 127.564 0 0 0 8.15-44.944v-2.24h-16v2.24a111.606 111.606 0 0 1 -7.131 39.325l-16.359 43.626a8 8 0 0 0 -.51 2.809v32.383c-7.3 4.052-19.467 7.617-36 7.617s-28.7-3.565-36-7.617v-32.383a8 8 0 0 0 -1.344-4.438l-31.205-46.807a91.713 91.713 0 0 1 -15.451-51.032v-64.152a21.333 21.333 0 0 1 12.862 15.529l11.293 56.466a8 8 0 0 0 3.729 5.291l6.014 3.609a62.31 62.31 0 0 1 30.102 53.167v.367h16v-.367a78.394 78.394 0 0 0 -37.869-66.884l-2.981-1.788-7.15-35.754v-118.375a22.037 22.037 0 0 1 16 21.168v106h16v-159.168a22.037 22.037 0 0 1 16 21.168v50h16v-39.168a22.037 22.037 0 0 1 16 21.168v106h16v-87.168a22.037 22.037 0 0 1 16 21.168v90zm-56 200a8 8 0 0 0 8 8 16 16 0 0 1 0 32 8 8 0 0 0 -8 8 16 16 0 0 1 -32 0 8 8 0 0 0 -8-8 16 16 0 0 1 0-32 8 8 0 0 0 8-8 16 16 0 0 1 32 0z"/><path d="m256 432h16v16h-16z"/></g></g></svg>