<?xml version="1.0" encoding="iso-8859-1"?>
<!-- Generator: Adobe Illustrator 19.0.0, SVG Export Plug-In . SVG Version: 6.00 Build 0)  -->
<svg version="1.1" id="Layer_1" xmlns="http://www.w3.org/2000/svg" xmlns:xlink="http://www.w3.org/1999/xlink" x="0px" y="0px"
	 viewBox="0 0 496.158 496.158" style="enable-background:new 0 0 496.158 496.158;" xml:space="preserve">
<path style="fill:#FABC3D;" d="M0,248.085C0,111.062,111.07,0.003,248.076,0.003c137.012,0,248.082,111.059,248.082,248.082
	c0,137-111.07,248.07-248.082,248.07C111.07,496.155,0,385.085,0,248.085z"/>
<path style="fill:#775030;" d="M190.368,147.895c0,0,17.812,6.498,40.512,17.332c47.531,22.699,71.806,51.441,79.508,84.092
	c4.919,20.908-10.251,58.121-17.055,70.672c-6.229,11.508-17.613,27.748-19.848,34c-22.631,63.234,62.463,74.621,62.463,74.621
	l2.397,0.209c0,0-34.54-6.895-0.634-66.154c5.259-9.182,18.864-38.545,28.171-62.23c16.11-41.012,10.714-70.352-4.495-102.305
	C335.158,143.018,260.239,94.587,182.209,71.126L190.368,147.895z"/>
<path style="fill:#604028;" d="M151.774,141.731c0,0,17.045,7.906,38.499,20.531c44.928,26.432,66.05,57.018,70.264,90.141
	c2.685,21.219-16.359,57.049-24.467,68.994c-7.418,10.957-20.475,26.215-23.365,32.254c-29.223,61.141,54.3,79.342,54.3,79.342
	l2.358,0.404c0,0-33.658-9.658,6.383-65.922c6.206-8.721,22.859-36.863,34.639-59.691c20.383-39.539,18.119-69.189,6.356-102.236
	c-20.285-56.992-89.745-111.26-164.967-140.912L151.774,141.731L151.774,141.731z"/>
<path style="fill:#49301F;" d="M120.49,136.538c0,0,16.141,9.238,36.174,23.525c41.965,29.922,59.784,62.061,60.493,95.391
	c0.45,21.34-22.284,55.498-31.61,66.74c-8.539,10.32-23.144,24.467-26.658,30.25c-35.521,58.541,45.731,83.352,45.731,83.352
	l2.312,0.594c0,0-32.509-12.311,13.278-65.135c7.096-8.189,26.643-34.873,40.767-56.67c24.45-37.736,25.312-67.445,17.074-101.293
	c-14.209-58.373-77.678-117.975-149.464-153.523L120.49,136.538z"/>
<g>
</g>
<g>
</g>
<g>
</g>
<g>
</g>
<g>
</g>
<g>
</g>
<g>
</g>
<g>
</g>
<g>
</g>
<g>
</g>
<g>
</g>
<g>
</g>
<g>
</g>
<g>
</g>
<g>
</g>
</svg>
