<svg id="Capa_1" enable-background="new 0 0 504.5 504.5" height="512" viewBox="0 0 504.5 504.5" width="512" xmlns="http://www.w3.org/2000/svg"><g><path d="m387.25 410v87c0 4.143 3.358 7.5 7.5 7.5s7.5-3.357 7.5-7.5v-87z" fill="#85453d"/><path d="m342.25 497c0 4.143 3.358 7.5 7.5 7.5s7.5-3.357 7.5-7.5v-87h-15z" fill="#a45e43"/><path d="m102.25 497c0 4.143 3.358 7.5 7.5 7.5s7.5-3.357 7.5-7.5v-87h-15z" fill="#a45e43"/><path d="m147.25 497c0 4.143 3.358 7.5 7.5 7.5s7.5-3.357 7.5-7.5v-87h-15z" fill="#85453d"/><path d="m102.25 357.5c-23.435 0-42.5-19.065-42.5-42.5 0-4.143-3.358-7.5-7.5-7.5s-7.5 3.357-7.5 7.5c0 31.706 25.794 57.5 57.5 57.5h30v-15z" fill="#a45e43"/><path d="m452.25 307.5c-4.142 0-7.5 3.357-7.5 7.5 0 23.435-19.065 42.5-42.5 42.5h-30v15h30c31.706 0 57.5-25.794 57.5-57.5 0-4.143-3.358-7.5-7.5-7.5z" fill="#85453d"/><path d="m214.75 285v196.592l-24.87 8.29c-3.93 1.31-6.053 5.557-4.744 9.487 1.31 3.93 5.559 6.054 9.487 4.744l29.998-10c3.063-1.021 5.128-3.887 5.128-7.115v-201.998z" fill="#a45e43"/><path d="m289.75 285v196.592l24.87 8.29c3.93 1.31 6.053 5.557 4.744 9.487-1.31 3.93-5.559 6.054-9.487 4.744l-29.998-10c-3.063-1.021-5.128-3.887-5.128-7.115v-201.998z" fill="#85453d"/><path d="m207.25 177.5c-45.491 0-82.5-37.009-82.5-82.5 0-4.142-3.358-7.5-7.5-7.5s-7.5 3.358-7.5 7.5c0 53.762 43.738 97.5 97.5 97.5h45v-15z" fill="#fff0d3"/><path d="m387.25 87.5c-4.143 0-7.5 3.358-7.5 7.5 0 45.491-37.01 82.5-82.5 82.5h-45v15h45c53.762 0 97.5-43.738 97.5-97.5 0-4.142-3.357-7.5-7.5-7.5z" fill="#ffe2a8"/><path d="m357.25 380 15 60c16.569 0 30-13.432 30-30v-15z" fill="#fff0d3"/><path d="m342.25 395v15c0 16.568 13.431 30 30 30v-60z" fill="#fff"/><path d="m372.25 345h10c11.046 0 20 8.954 20 20v30h-30l-15-25z" fill="#85453d"/><path d="m372.25 345h-10c-11.046 0-20 8.954-20 20v30h30z" fill="#a45e43"/><path d="m372.25 255-15 30 15 30c16.569 0 30-13.431 30-30s-13.431-30-30-30z" fill="#85453d"/><path d="m342.25 285c0 16.569 13.431 30 30 30v-60c-16.569 0-30 13.431-30 30z" fill="#a45e43"/><path d="m117.25 380 15 60c16.569 0 30-13.432 30-30v-15z" fill="#fff0d3"/><path d="m102.25 395v15c0 16.568 13.431 30 30 30v-60z" fill="#fff"/><path d="m132.25 345h10c11.046 0 20 8.954 20 20v30h-30l-15-25z" fill="#85453d"/><path d="m132.25 345h-10c-11.046 0-20 8.954-20 20v30h30z" fill="#a45e43"/><path d="m132.25 255-15 30 15 30c16.569 0 30-13.431 30-30s-13.431-30-30-30z" fill="#85453d"/><path d="m102.25 285c0 16.569 13.431 30 30 30v-60c-16.569 0-30 13.431-30 30z" fill="#a45e43"/><path d="m252.25 45v90c24.853 0 45-20.147 45-45s-20.147-45-45-45z" fill="#85453d"/><path d="m267.25 90c0-24.853-6.716-45-15-45-24.853 0-45 20.147-45 45s20.147 45 45 45c8.284 0 15-20.147 15-45z" fill="#a45e43"/><circle cx="252.25" cy="22.5" fill="#40211d" r="22.5"/><path d="m297.25 185c0-11.046-8.954-20-20-20h-30v120h50z" fill="#ffe2a8"/><path d="m297.25 255h-30l15 90h30v-50.335c0-15.211-5.671-29.09-15-39.665z" fill="#ff4996"/><path d="m267.25 185c0-11.046-8.954-20-20-20h-20c-11.046 0-20 8.954-20 20v100h60z" fill="#fff0d3"/><path d="m207.25 255c-9.329 10.575-15 24.454-15 39.665v50.335h90v-50.335c0-15.211-5.671-29.09-15-39.665z" fill="#ff6b8a"/></g></svg>