<?xml version="1.0" encoding="iso-8859-1"?>
<!-- Generator: Adobe Illustrator 19.0.0, SVG Export Plug-In . SVG Version: 6.00 Build 0)  -->
<svg version="1.1" id="Capa_1" xmlns="http://www.w3.org/2000/svg" xmlns:xlink="http://www.w3.org/1999/xlink" x="0px" y="0px"
	 viewBox="0 0 386.937 386.937" style="enable-background:new 0 0 386.937 386.937;" xml:space="preserve">
<g>
	<rect x="32.2" y="240.137" style="fill:#FFD517;" width="55.6" height="137.6"/>
	<rect x="122.6" y="188.937" style="fill:#FFD517;" width="55.6" height="190.4"/>
	<rect x="213.4" y="139.737" style="fill:#FFD517;" width="55.6" height="239.6"/>
	<rect x="304.2" y="100.537" style="fill:#FFD517;" width="55.6" height="278.8"/>
</g>
<g>
	<path style="fill:#210B20;" d="M87.8,232.537H32.2c-4,0-7.6,3.2-7.6,7.6v137.6c0,4,3.2,7.6,7.6,7.6h55.6c4,0,7.6-3.2,7.6-7.6
		v-137.6C95.4,235.737,91.8,232.537,87.8,232.537z M80.2,370.137H39.4v-122.8h40.8V370.137z"/>
	<path style="fill:#210B20;" d="M178.6,181.337h-56c-4,0-7.6,3.2-7.6,7.6v190.4c0,4,3.2,7.6,7.6,7.6h55.6c4,0,7.6-3.2,7.6-7.6
		v-190.4C186.2,184.937,182.6,181.337,178.6,181.337z M171,371.737h-40.8v-175.2H171V371.737z"/>
	<path style="fill:#210B20;" d="M269.4,132.137h-56c-4,0-7.6,3.2-7.6,7.6v239.6c0,4,3.2,7.6,7.6,7.6h56c4,0,7.6-3.2,7.6-7.6v-239.6
		C277,135.737,273.4,132.137,269.4,132.137z M261.8,371.737H221v-224.4h40.8V371.737z"/>
	<path style="fill:#210B20;" d="M360.2,92.937h-56c-4,0-7.6,3.2-7.6,7.6v278.8c0,4,3.2,7.6,7.6,7.6h55.6c4,0,7.6-3.2,7.6-7.6v-278.8
		C367.8,96.137,364.2,92.937,360.2,92.937z M352.6,371.737h-40.8v-263.6h40.8L352.6,371.737L352.6,371.737z"/>
	<path style="fill:#210B20;" d="M30.6,219.737l317.6-187.6l-7.6,27.6c-1.2,4,1.2,8,5.2,9.2c0.8,0,1.2,0.4,2,0.4
		c3.2,0,6.4-2.4,7.2-5.6l12.4-45.6l0,0c0.4-0.8,0.4-2,0-2.8c0-0.4,0-0.4-0.4-0.8c0-0.8-0.4-1.2-0.8-2l0,0l0,0c0-0.4-0.4-0.4-0.8-0.8
		s-0.8-1.2-1.2-1.2c-0.4-0.4-0.8-0.4-0.8-0.4c-0.4-0.4-1.2-0.4-1.6-0.8c0,0,0,0-0.4,0l-44-9.2c-4-0.8-8,2-8.8,6c-0.8,4,2,8,6,8.8
		l24.8,5.2L23,206.537c-3.6,2-4.8,6.8-2.8,10.4c1.6,2.4,4,3.6,6.4,3.6C28.2,220.937,29.4,220.537,30.6,219.737z"/>
</g>
<g>
</g>
<g>
</g>
<g>
</g>
<g>
</g>
<g>
</g>
<g>
</g>
<g>
</g>
<g>
</g>
<g>
</g>
<g>
</g>
<g>
</g>
<g>
</g>
<g>
</g>
<g>
</g>
<g>
</g>
</svg>
