<svg id="Capa_1" enable-background="new 0 0 512.015 512.015" height="512" viewBox="0 0 512.015 512.015" width="512" xmlns="http://www.w3.org/2000/svg"><g><g><path d="m383.614 321.561v-179.346l-127.607-100.884-127.606 100.884v179.346h-97.065c-3.866 0-7 3.134-7 7v175.947h104.065 255.214 104.065v-175.947c0-3.866-3.134-7-7-7z" fill="#fedba6"/><path d="m383.614 321.56h55.16v182.947h-55.16z" fill="#fece85"/><path d="m454.401 402.406h-37.509v-38.451c0-3.866 3.134-7 7-7h23.509c3.866 0 7 3.134 7 7z" fill="#8ac9fe"/><path d="m447.401 432.524h-23.509c-3.866 0-7-3.134-7-7v-25.912h37.509v25.912c0 3.866-3.134 7-7 7z" fill="#eaf6ff"/><path d="m283.587 68.136-27.58-21.805-127.606 100.884v357.292h55.159v-357.292z" fill="#fece85"/><g fill="#8ac9fe"><path d="m346.47 323.251h-37.509v-37.348c0-3.866 3.134-7 7-7h23.509c3.866 0 7 3.134 7 7z"/><path d="m204.709 207.048h-37.509v-36.98c0-3.866 3.134-7 7-7h23.509c3.866 0 7 3.134 7 7z"/><path d="m275.589 207.048h-37.509v-36.98c0-3.866 3.134-7 7-7h23.509c3.866 0 7 3.134 7 7z"/><path d="m346.47 207.048h-37.509v-36.98c0-3.866 3.134-7 7-7h23.509c3.866 0 7 3.134 7 7z"/></g><path d="m197.709 238.637h-23.509c-3.866 0-7-3.134-7-7v-26.934h37.509v26.934c0 3.866-3.134 7-7 7z" fill="#eaf6ff"/><path d="m268.589 238.637h-23.509c-3.866 0-7-3.134-7-7v-26.934h37.509v26.934c0 3.866-3.134 7-7 7z" fill="#eaf6ff"/><path d="m339.47 238.637h-23.509c-3.866 0-7-3.134-7-7v-26.934h37.509v26.934c0 3.866-3.134 7-7 7z" fill="#eaf6ff"/><path d="m204.709 323.251h-37.509v-37.348c0-3.866 3.134-7 7-7h23.509c3.866 0 7 3.134 7 7z" fill="#8ac9fe"/><path d="m275.589 323.251h-37.509v-37.348c0-3.866 3.134-7 7-7h23.509c3.866 0 7 3.134 7 7z" fill="#8ac9fe"/><path d="m339.47 354.473h-23.509c-3.866 0-7-3.134-7-7v-25.912h37.509v25.912c0 3.866-3.134 7-7 7z" fill="#eaf6ff"/><path d="m197.709 354.473h-23.509c-3.866 0-7-3.134-7-7v-25.912h37.509v25.912c0 3.866-3.134 7-7 7z" fill="#eaf6ff"/><path d="m268.589 354.473h-23.509c-3.866 0-7-3.134-7-7v-25.912h37.509v25.912c0 3.866-3.134 7-7 7z" fill="#eaf6ff"/><path d="m411.834 138.397c2.645-3.346 2.076-8.202-1.27-10.847l-149.771-118.379c-2.807-2.219-6.77-2.219-9.577 0l-149.765 118.379c-3.346 2.645-3.914 7.501-1.27 10.847l10.351 13.096c2.645 3.346 7.501 3.915 10.847 1.27l129.84-102.625c2.807-2.219 6.77-2.219 9.577 0l129.84 102.625c3.346 2.645 8.202 2.076 10.847-1.27z" fill="#f07281"/><path d="m245.987 498.991v-20.041c0-3.046 2.47-5.516 5.516-5.516h-44.128c-3.046 0-5.516 2.47-5.516 5.516v25.557h49.644c-3.047 0-5.516-2.469-5.516-5.516z" fill="#fece85"/><path d="m281.584 473.434h-49.498v-73.695c0-2.761 2.239-5 5-5h39.498c2.761 0 5 2.239 5 5z" fill="#3c87d0"/><path d="m254.15 467.918v-67.663c0-3.046 2.47-5.516 5.516-5.516h-22.064c-3.046 0-5.516 2.47-5.516 5.516v73.179h27.58c-3.046 0-5.516-2.47-5.516-5.516z" fill="#406cbc"/><circle cx="256.467" cy="110.482" fill="#8ac9fe" r="18.387"/><path d="m24.336 328.56v175.947h55.16v-182.947h-48.16c-3.866 0-7 3.134-7 7z" fill="#fece85"/><path d="m95.123 402.406h-37.509v-38.451c0-3.866 3.134-7 7-7h23.509c3.866 0 7 3.134 7 7z" fill="#8ac9fe"/><path d="m88.123 432.524h-23.509c-3.866 0-7-3.134-7-7v-25.912h37.509v25.912c0 3.866-3.134 7-7 7z" fill="#eaf6ff"/></g><g><path d="m301.461 354.48c0 4.143 3.357 7.5 7.5 7.5h37.509c4.143 0 7.5-3.357 7.5-7.5v-75.568c0-4.143-3.357-7.5-7.5-7.5h-37.509c-4.143 0-7.5 3.357-7.5 7.5zm15-7.5v-17.912h22.509v17.912zm22.508-60.569v27.656h-22.509v-27.656z"/><path d="m167.2 246.145h37.509c4.143 0 7.5-3.357 7.5-7.5v-75.569c0-4.143-3.357-7.5-7.5-7.5h-37.509c-4.143 0-7.5 3.357-7.5 7.5v75.569c0 4.142 3.357 7.5 7.5 7.5zm7.5-15v-18.934h22.509v18.934zm22.509-60.57v26.636h-22.509v-26.636z"/><path d="m230.581 238.645c0 4.143 3.357 7.5 7.5 7.5h37.509c4.143 0 7.5-3.357 7.5-7.5v-75.569c0-4.143-3.357-7.5-7.5-7.5h-37.509c-4.143 0-7.5 3.357-7.5 7.5zm15-7.5v-18.934h22.509v18.934zm22.508-60.57v26.636h-22.509v-26.636z"/><path d="m308.961 246.145h37.509c4.143 0 7.5-3.357 7.5-7.5v-75.569c0-4.143-3.357-7.5-7.5-7.5h-37.509c-4.143 0-7.5 3.357-7.5 7.5v75.569c0 4.142 3.357 7.5 7.5 7.5zm7.5-15v-18.934h22.509v18.934zm22.508-60.57v26.636h-22.509v-26.636z"/><path d="m159.7 354.48c0 4.143 3.357 7.5 7.5 7.5h37.509c4.143 0 7.5-3.357 7.5-7.5v-75.568c0-4.143-3.357-7.5-7.5-7.5h-37.509c-4.143 0-7.5 3.357-7.5 7.5zm15-7.5v-17.912h22.509v17.912zm22.509-60.569v27.656h-22.509v-27.656z"/><path d="m230.581 354.48c0 4.143 3.357 7.5 7.5 7.5h37.509c4.143 0 7.5-3.357 7.5-7.5v-75.568c0-4.143-3.357-7.5-7.5-7.5h-37.509c-4.143 0-7.5 3.357-7.5 7.5zm15-7.5v-17.912h22.509v17.912zm22.508-60.569v27.656h-22.509v-27.656z"/><path d="m416.892 349.462c-4.143 0-7.5 3.357-7.5 7.5v75.569c0 4.143 3.357 7.5 7.5 7.5h37.509c4.143 0 7.5-3.357 7.5-7.5v-75.569c0-4.143-3.357-7.5-7.5-7.5zm30.009 15v27.657h-22.509v-27.657zm-22.509 60.569v-17.912h22.509v17.912z"/><path d="m256.467 136.376c14.274 0 25.887-11.612 25.887-25.887s-11.612-25.887-25.887-25.887-25.887 11.612-25.887 25.887 11.613 25.887 25.887 25.887zm0-36.773c6.003 0 10.887 4.884 10.887 10.887s-4.884 10.887-10.887 10.887-10.887-4.884-10.887-10.887 4.884-10.887 10.887-10.887z"/><path d="m487.679 448.004c4.143 0 7.5-3.357 7.5-7.5v-118.936c0-4.143-3.357-7.5-7.5-7.5h-96.565v-152.755c1.945.575 4.004.762 6.081.517 4.038-.473 7.65-2.489 10.172-5.68l10.351-13.096c5.205-6.585 4.082-16.176-2.503-21.381l-45.795-36.195c-3.249-2.569-7.965-2.017-10.534 1.233-2.568 3.249-2.017 7.966 1.233 10.534l45.795 36.196c.096.076.112.216.036.313l-10.351 13.096c-.021.026-.058.072-.149.083-.081.004-.136-.025-.164-.047l-129.839-102.625c-5.558-4.392-13.321-4.394-18.879 0l-129.84 102.625c-.027.021-.085.051-.163.047-.092-.011-.128-.057-.149-.083l-10.351-13.096c-.076-.097-.06-.236.036-.313l149.767-118.378c.08-.065.193-.064.275 0l67.646 53.468c3.25 2.569 7.965 2.017 10.534-1.233 2.568-3.249 2.017-7.966-1.233-10.534l-67.645-53.469c-5.558-4.395-13.321-4.393-18.879 0l-149.766 118.379c-6.585 5.205-7.708 14.796-2.503 21.381l10.351 13.096c2.521 3.19 6.134 5.207 10.172 5.68.603.071 1.203.105 1.801.105 1.462 0 2.898-.222 4.28-.63v87.808c0 4.143 3.357 7.5 7.5 7.5s7.5-3.357 7.5-7.5v-98.262l119.968-94.822c.081-.063.193-.066.276-.001l119.969 94.824v170.715 175.447h-58.458v-18.573c0-6.893-5.607-12.5-12.5-12.5h-16.072v-66.195c0-6.893-5.607-12.5-12.5-12.5h-39.498c-6.893 0-12.5 5.607-12.5 12.5v66.195h-17.727c-6.893 0-12.5 5.607-12.5 12.5v18.573h-58.458v-211.842c0-4.143-3.357-7.5-7.5-7.5s-7.5 3.357-7.5 7.5v28.895h-96.565c-4.143 0-7.5 3.357-7.5 7.5v182.947c0 4.143 3.357 7.5 7.5 7.5h104.064s0 0 0 0h73.458 108.297 73.458 104.065c4.143 0 7.5-3.357 7.5-7.5v-27.951c0-4.143-3.357-7.5-7.5-7.5s-7.5 3.357-7.5 7.5v20.451h-89.065v-167.947h89.065v111.437c.001 4.142 3.359 7.499 7.501 7.499zm-366.779 49.011h-89.064v-167.947h89.064zm118.686-94.769h34.498v63.695h-34.498zm-30.227 94.769v-16.073h22.727 49.498 21.072v16.073z"/><path d="m57.614 440.031h37.509c4.143 0 7.5-3.357 7.5-7.5v-75.569c0-4.143-3.357-7.5-7.5-7.5h-37.509c-4.143 0-7.5 3.357-7.5 7.5v75.569c0 4.143 3.357 7.5 7.5 7.5zm7.5-15v-17.912h22.509v17.912zm22.509-60.569v27.657h-22.509v-27.657z"/></g></g></svg>