<?xml version="1.0" encoding="iso-8859-1"?>
<!-- Generator: Adobe Illustrator 19.0.0, SVG Export Plug-In . SVG Version: 6.00 Build 0)  -->
<svg version="1.1" id="Capa_1" xmlns="http://www.w3.org/2000/svg" xmlns:xlink="http://www.w3.org/1999/xlink" x="0px" y="0px"
	 viewBox="0 0 512 512" style="enable-background:new 0 0 512 512;" xml:space="preserve">
<circle style="fill:#FFDD3B;" cx="256" cy="256" r="256"/>
<path style="fill:#F3C000;" d="M496.423,167.866l-95.688-95.688h-74.918l-18.627-18.627h-27.279
	c0-13.293-10.776-24.069-24.069-24.069c-0.048,0-0.095,0.004-0.144,0.007c-13.226,0.078-23.925,10.817-23.925,24.062h-27.279v18.627
	h-93.544v365.367l59.951,59.951C197.53,506.879,226.164,512,256,512c141.385,0,256-114.615,256-256
	C512,225.029,506.5,195.344,496.423,167.866z"/>
<rect x="110.953" y="72.178" style="fill:#7A7983;" width="289.782" height="365.367"/>
<rect x="255.649" y="72.178" style="fill:#57555C;" width="145.087" height="365.367"/>
<rect x="147.265" y="90.463" style="fill:#FFFFFF;" width="217.168" height="299.912"/>
<rect x="255.649" y="90.463" style="fill:#BFE9F3;" width="108.775" height="299.912"/>
<path style="fill:#7A7982;" d="M279.913,53.551c0-13.293-10.776-24.069-24.069-24.069s-24.069,10.776-24.069,24.069h-27.279v49.742
	h102.694V53.551H279.913z M255.844,63.579c-5.539,0-10.029-4.49-10.029-10.028s4.49-10.029,10.029-10.029
	c5.539,0,10.028,4.49,10.028,10.029C265.873,59.09,261.383,63.579,255.844,63.579z"/>
<path style="fill:#3C3C40;" d="M279.913,53.551c0-13.293-10.776-24.069-24.069-24.069c-0.066,0-0.13,0.009-0.196,0.01v14.04
	c0.066-0.001,0.13-0.01,0.196-0.01c5.539,0,10.029,4.49,10.029,10.029c0,5.539-4.491,10.029-10.029,10.029
	c-0.066,0-0.13-0.009-0.196-0.01v39.723h51.542V53.551H279.913z"/>
<g>
	<rect x="175.014" y="140.8" style="fill:#A2E0ED;" width="80.635" height="13.237"/>
	<rect x="175.014" y="264.353" style="fill:#A2E0ED;" width="80.635" height="13.237"/>
	<rect x="175.014" y="305.534" style="fill:#A2E0ED;" width="80.635" height="13.237"/>
	<rect x="175.014" y="181.981" style="fill:#A2E0ED;" width="161.611" height="13.237"/>
</g>
<rect x="256" y="181.981" style="fill:#65D1E6;" width="80.635" height="13.237"/>
<rect x="175.014" y="223.162" style="fill:#A2E0ED;" width="161.611" height="13.237"/>
<rect x="256" y="223.162" style="fill:#65D1E6;" width="80.635" height="13.237"/>
<g>
	<polygon style="fill:#4EC247;" points="304.916,166.995 281.83,143.908 289.7,136.038 304.916,151.254 330.376,125.794
		338.245,133.663 	"/>
	<polygon style="fill:#4EC247;" points="304.916,284.978 281.83,261.891 289.7,254.021 304.916,269.237 330.376,243.776
		338.245,251.646 	"/>
</g>
<g>

		<rect x="301.623" y="293.069" transform="matrix(-0.7071 -0.7071 0.7071 -0.7071 303.7256 749.983)" style="fill:#FF5F3B;" width="11.133" height="38.038"/>

		<rect x="288.18" y="306.521" transform="matrix(-0.7071 -0.7071 0.7071 -0.7071 303.7427 749.9901)" style="fill:#FF5F3B;" width="38.038" height="11.133"/>
</g>
<g>
</g>
<g>
</g>
<g>
</g>
<g>
</g>
<g>
</g>
<g>
</g>
<g>
</g>
<g>
</g>
<g>
</g>
<g>
</g>
<g>
</g>
<g>
</g>
<g>
</g>
<g>
</g>
<g>
</g>
</svg>
