<svg id="Capa_1" enable-background="new 0 0 512.002 512.002" height="512" viewBox="0 0 512.002 512.002" width="512" xmlns="http://www.w3.org/2000/svg"><g><path d="m278.626 97.5c0 28.949 23.551 52.5 52.5 52.5s52.5-23.551 52.5-52.5c0-17.087-8.209-32.288-20.885-41.881 5.562-4.1 9.179-10.694 9.179-18.119 0-5.115-1.781-10.099-4.962-14.07-.723-4.701-2.908-9.04-6.315-12.446-4.316-4.316-10.176-6.672-16.158-6.585-3.844-2.858-8.471-4.399-13.359-4.399s-9.515 1.541-13.358 4.398c-6.021-.09-11.842 2.269-16.158 6.585-3.407 3.407-5.593 7.745-6.315 12.447-3.181 3.971-4.962 8.954-4.962 14.069 0 7.425 3.617 14.018 9.179 18.118-12.677 9.594-20.886 24.796-20.886 41.883zm90 0c0 20.678-16.822 37.5-37.5 37.5s-37.5-16.822-37.5-37.5 16.822-37.5 37.5-37.5 37.5 16.822 37.5 37.5zm-55.793-52.5c-4.136 0-7.5-3.364-7.5-7.5 0-2.069.836-4 2.355-5.438 1.462-1.384 2.307-3.297 2.343-5.31.036-1.956.812-3.79 2.185-5.162 1.417-1.417 3.33-2.193 5.304-2.193.461 0 .925.042 1.387.129 2.497.467 5.051-.361 6.801-2.195 1.435-1.503 3.359-2.332 5.417-2.332s3.982.828 5.417 2.332c1.75 1.834 4.307 2.66 6.801 2.195 2.439-.456 4.943.316 6.691 2.064 1.373 1.373 2.148 3.207 2.185 5.163.037 2.012.881 3.925 2.343 5.308 1.519 1.438 2.356 3.37 2.356 5.438 0 4.136-3.364 7.5-7.5 7.5h-36.585z"/><path d="m393.748 497.324-24.872-8.291v-129.094h22.25c4.142 0 7.5-3.358 7.5-7.5v-50.335c0-15.472-5.307-30.417-15-42.406v-59.983c50.271-3.842 90-45.976 90-97.214 0-4.142-3.358-7.5-7.5-7.5s-7.5 3.358-7.5 7.5c0 43.338-33.596 78.952-76.108 82.228-3.343-11.421-13.905-19.789-26.392-19.789h-50c-15.164 0-27.5 12.336-27.5 27.5v67.259c-9.693 11.989-15 26.935-15 42.406v50.335c0 4.142 3.358 7.5 7.5 7.5h22.25v129.094l-24.872 8.291c-3.93 1.31-6.053 5.557-4.744 9.487 1.048 3.143 3.974 5.13 7.114 5.13.786 0 1.586-.125 2.373-.387l30-10c3.063-1.021 5.128-3.887 5.128-7.115v-134.5h45.5v134.5c0 3.228 2.066 6.094 5.128 7.115l30 10c.787.262 1.586.387 2.373.387 3.14 0 6.066-1.988 7.114-5.13 1.311-3.931-.813-8.178-4.742-9.488zm-87.622-317.385h50c6.893 0 12.5 5.607 12.5 12.5v5.616c-3.789-1.948-8.083-3.055-12.633-3.055-7.344 0-14.25 2.86-19.445 8.054l-5.49 5.49-5.491-5.491c-5.194-5.193-12.1-8.054-19.444-8.054-4.499 0-8.744 1.093-12.497 3.017v-5.578c0-6.892 5.607-12.499 12.5-12.499zm-.003 30.061c3.338 0 6.478 1.3 8.838 3.661l10.768 10.768c1.464 1.464 3.397 2.197 5.329 2.197s3.865-.732 5.329-2.197l10.767-10.767c2.362-2.361 5.5-3.662 8.839-3.662 6.966 0 12.633 5.607 12.633 12.5v32.439h-75v-32.439c0-6.893 5.606-12.5 12.497-12.5zm-27.497 92.104c0-11.687 3.905-22.982 11.039-32.165h82.923c7.133 9.183 11.039 20.478 11.039 32.165v42.835h-105v-42.835z"/><path d="m180.876 150c28.949 0 52.5-23.551 52.5-52.5v-64.986c0-11.348-8.445-20.761-19.38-22.285-2.65-3.027-6.073-5.301-9.944-6.559-3.837-1.248-7.9-1.428-11.79-.563-3.431-2.024-7.351-3.107-11.386-3.107-4.036 0-7.955 1.083-11.387 3.106-3.89-.864-7.953-.683-11.79.564-3.871 1.258-7.293 3.532-9.943 6.559-10.935 1.524-19.38 10.937-19.38 22.285v64.986c0 28.949 23.551 52.5 52.5 52.5zm-37.5-117.486c0-4.136 3.364-7.5 7.404-7.501l.506.032c2.817.148 5.48-1.29 6.894-3.73.933-1.611 2.409-2.811 4.155-3.378 1.763-.572 3.676-.462 5.388.309 2.723 1.227 5.914.721 8.125-1.287 1.39-1.263 3.176-1.958 5.029-1.958s3.639.695 5.028 1.958c2.211 2.007 5.402 2.514 8.125 1.287 1.713-.771 3.627-.881 5.388-.309 1.747.568 3.223 1.767 4.156 3.378 1.414 2.44 4.071 3.877 6.895 3.73l.409-.03c4.136 0 7.5 3.364 7.5 7.5v28.294c-9.539-9.746-22.823-15.809-37.502-15.809s-27.963 6.063-37.5 15.808zm37.5 27.486c20.678 0 37.5 16.822 37.5 37.5s-16.822 37.5-37.5 37.5-37.5-16.822-37.5-37.5 16.822-37.5 37.5-37.5z"/><path d="m243.248 497.385-24.872-8.291v-159.862c1.323-1.349 2.574-2.778 3.753-4.275 5.52 3.2 11.92 5.043 18.747 5.043 4.142 0 7.5-3.358 7.5-7.5v-130c0-15.164-12.336-27.5-27.5-27.5h-80c-12.465 0-23.013 8.339-26.375 19.729-42.52-3.268-76.125-38.886-76.125-82.229 0-4.142-3.358-7.5-7.5-7.5s-7.5 3.358-7.5 7.5c0 51.239 39.729 93.372 90 97.214v122.786c0 4.142 3.358 7.5 7.5 7.5 6.827 0 13.227-1.843 18.747-5.043 1.179 1.497 2.43 2.925 3.753 4.275v159.863l-24.872 8.291c-3.93 1.31-6.053 5.557-4.744 9.487 1.048 3.143 3.974 5.13 7.114 5.13.786 0 1.586-.125 2.373-.387l30-10c3.063-1.021 5.128-3.887 5.128-7.115v-154.581c6.919 3.287 14.581 5.08 22.5 5.08s15.581-1.793 22.5-5.08v154.58c0 3.228 2.066 6.094 5.128 7.115l30 10c.787.262 1.586.387 2.373.387 3.14 0 6.066-1.988 7.114-5.13 1.311-3.93-.813-8.177-4.742-9.487zm-24.872-317.385h2.5c6.893 0 12.5 5.607 12.5 12.5v121.215c-8.73-3.095-15-11.437-15-21.215zm-15 0v105h-45v-105zm-75 12.5c0-6.893 5.607-12.5 12.5-12.5h2.5v112.5c0 9.778-6.27 18.12-15 21.215zm22.494 122.481c3.275-4.359 5.624-9.45 6.751-14.981h46.509c1.127 5.531 3.476 10.623 6.751 14.981-7.03 9.37-18.116 15.019-30.005 15.019s-22.976-5.649-30.006-15.019z"/><path d="m60.876 255c-20.678 0-37.5 16.822-37.5 37.5s16.822 37.5 37.5 37.5 37.5-16.822 37.5-37.5-16.822-37.5-37.5-37.5zm0 60c-12.407 0-22.5-10.093-22.5-22.5s10.093-22.5 22.5-22.5 22.5 10.093 22.5 22.5-10.093 22.5-22.5 22.5z"/><path d="m70.876 345h-20c-15.164 0-27.5 12.336-27.5 27.5v132c0 4.142 3.358 7.5 7.5 7.5s7.5-3.358 7.5-7.5v-57.02c6.272 4.719 14.064 7.52 22.5 7.52s16.228-2.801 22.5-7.52v57.02c0 4.142 3.358 7.5 7.5 7.5s7.5-3.358 7.5-7.5v-132c0-15.164-12.336-27.5-27.5-27.5zm-20 15h20c6.893 0 12.5 5.607 12.5 12.5v22.5h-45v-22.5c0-6.893 5.607-12.5 12.5-12.5zm10 80c-12.407 0-22.5-10.093-22.5-22.5v-7.5h45v7.5c0 12.407-10.093 22.5-22.5 22.5z"/><path d="m413.626 292.5c0 20.678 16.822 37.5 37.5 37.5s37.5-16.822 37.5-37.5-16.822-37.5-37.5-37.5-37.5 16.822-37.5 37.5zm60 0c0 12.407-10.093 22.5-22.5 22.5s-22.5-10.093-22.5-22.5 10.093-22.5 22.5-22.5 22.5 10.093 22.5 22.5z"/><path d="m461.126 345h-20c-15.164 0-27.5 12.336-27.5 27.5v132c0 4.142 3.358 7.5 7.5 7.5s7.5-3.358 7.5-7.5v-57.02c6.272 4.719 14.064 7.52 22.5 7.52s16.228-2.801 22.5-7.52v57.02c0 4.142 3.358 7.5 7.5 7.5s7.5-3.358 7.5-7.5v-132c0-15.164-12.336-27.5-27.5-27.5zm-20 15h20c6.893 0 12.5 5.607 12.5 12.5v22.5h-45v-22.5c0-6.893 5.607-12.5 12.5-12.5zm10 80c-12.407 0-22.5-10.093-22.5-22.5v-7.5h45v7.5c0 12.407-10.093 22.5-22.5 22.5z"/></g></svg>