<?xml version="1.0"?>
<svg xmlns="http://www.w3.org/2000/svg" xmlns:xlink="http://www.w3.org/1999/xlink" xmlns:svgjs="http://svgjs.com/svgjs" version="1.1" width="512" height="512" x="0" y="0" viewBox="0 0 480 480" style="enable-background:new 0 0 512 512" xml:space="preserve" class=""><g>
<g xmlns="http://www.w3.org/2000/svg">
	<g>
		<path d="M99.312,263.996L88,252.684c-3.128-3.128-8.184-3.128-11.312,0s-3.128,8.184,0,11.312L88,275.308    c1.56,1.56,3.608,2.344,5.656,2.344s4.096-0.784,5.656-2.344C102.44,272.18,102.44,267.124,99.312,263.996z" fill="#3322ff" data-original="#000000" style="" class=""/>
	</g>
</g>
<g xmlns="http://www.w3.org/2000/svg">
	<g>
		<path d="M147.312,311.996L136,300.684c-3.128-3.128-8.184-3.128-11.312,0s-3.128,8.184,0,11.312L136,323.308    c1.56,1.56,3.608,2.344,5.656,2.344c2.048,0,4.096-0.784,5.656-2.344C150.44,320.18,150.44,315.124,147.312,311.996z" fill="#3322ff" data-original="#000000" style="" class=""/>
	</g>
</g>
<g xmlns="http://www.w3.org/2000/svg">
	<g>
		<path d="M171.312,215.996L160,204.684c-3.128-3.128-8.184-3.128-11.312,0s-3.128,8.184,0,11.312L160,227.308    c1.56,1.56,3.608,2.344,5.656,2.344c2.048,0,4.096-0.784,5.656-2.344C174.44,224.18,174.44,219.124,171.312,215.996z" fill="#3322ff" data-original="#000000" style="" class=""/>
	</g>
</g>
<g xmlns="http://www.w3.org/2000/svg">
	<g>
		<path d="M195.312,252.684c-3.128-3.128-8.184-3.128-11.312,0l-11.312,11.312c-3.128,3.128-3.128,8.184,0,11.312    c1.56,1.56,3.608,2.344,5.656,2.344c2.048,0,4.096-0.784,5.656-2.344l11.312-11.312    C198.44,260.868,198.44,255.812,195.312,252.684z" fill="#3322ff" data-original="#000000" style="" class=""/>
	</g>
</g>
<g xmlns="http://www.w3.org/2000/svg">
	<g>
		<path d="M99.312,359.996L88,348.684c-3.128-3.128-8.184-3.128-11.312,0s-3.128,8.184,0,11.312L88,371.308    c1.56,1.56,3.608,2.344,5.656,2.344s4.096-0.784,5.656-2.344C102.44,368.18,102.44,363.124,99.312,359.996z" fill="#3322ff" data-original="#000000" style="" class=""/>
	</g>
</g>
<g xmlns="http://www.w3.org/2000/svg">
	<g>
		<path d="M195.312,348.684c-3.128-3.128-8.184-3.128-11.312,0l-11.312,11.312c-3.128,3.128-3.128,8.184,0,11.312    c1.56,1.56,3.608,2.344,5.656,2.344c2.048,0,4.096-0.784,5.656-2.344l11.312-11.312    C198.44,356.868,198.44,351.812,195.312,348.684z" fill="#3322ff" data-original="#000000" style="" class=""/>
	</g>
</g>
<g xmlns="http://www.w3.org/2000/svg">
	<g>
		<path d="M380,223.996c-24.256,0-44,19.736-44,44c0,24.264,19.744,44,44,44c24.256,0,44-19.736,44-44    C424,243.732,404.256,223.996,380,223.996z M380,295.996c-15.44,0-28-12.56-28-28s12.56-28,28-28s28,12.56,28,28    S395.44,295.996,380,295.996z" fill="#3322ff" data-original="#000000" style="" class=""/>
	</g>
</g>
<g xmlns="http://www.w3.org/2000/svg">
	<g>
		<path d="M461.256,136.62l-14.096-28.2c-1.36-2.712-4.128-4.424-7.16-4.424v-56c0-4.408,3.584-8,8-8h24c4.424,0,8-3.584,8-8    s-3.576-8-8-8h-24c-13.232,0-24,10.768-24,24v56H320c-3.032,0-5.8,1.712-7.16,4.424l-14.096,28.2    C288.04,139.028,280,148.572,280,159.996v16c0,4.416,3.576,8,8,8h8.512l13.512,202.664c0.536,8.008,3.464,15.32,8,21.336h-86.232    c4.248-5.608,6.96-12.328,7.768-19.672l10.032-7.528c14.032-10.52,22.408-27.272,22.408-44.8V269.66    c0-21.344-11.856-40.536-30.952-50.088l-1.048-0.52v-18.336c2.912-2.056,5.576-4.52,7.896-7.352    c7.624-9.304,10.648-21.408,8.288-33.2l-3.192-16c-3.032-15.16-14.576-26.8-28.992-30.664v-1.504c0-22.056-17.944-40-40-40h-8    c-7.088,0-13.896,1.88-20,5.488c-6.112-3.608-12.92-5.488-20-5.488h-8c-7.08,0-13.896,1.88-20,5.488    c-6.104-3.608-12.92-5.488-20-5.488h-8c-22.056,0-40,17.944-40,40v4.544c-10.544,5.448-18.544,15.384-20.992,27.616l-3.192,15.992    c-2.36,11.8,0.664,23.904,8.288,33.208c2.32,2.832,4.984,5.296,7.896,7.352v18.336l-1.048,0.52C11.856,229.124,0,248.316,0,269.66    v66.336c0,17.528,8.376,34.28,22.4,44.8l10.04,7.536c0.808,7.344,3.52,14.064,7.768,19.672H8c-4.424,0-8,3.584-8,8v16    c0,13.232,10.888,24,24.28,24h431.44c13.392-0.008,24.28-10.776,24.28-24.008v-16c0-4.416-3.576-8-8-8h-30.024    c4.544-6.016,7.464-13.336,8-21.336l13.512-202.664H472c4.424,0,8-3.584,8-8v-16C480,148.572,471.96,139.028,461.256,136.62z     M32,367.996c-10.016-7.512-16-19.48-16-32V269.66c0-12.824,5.984-24.552,16-32.016V367.996z M324.944,119.996h110.112l8,16    H316.944L324.944,119.996z M256,269.66v66.336c0,12.52-5.976,24.48-16,32V237.644C250.016,245.108,256,256.836,256,269.66z     M80,87.996h8c5.4,0,10.576,1.88,14.976,5.432c0.312,0.256,0.688,0.368,1.024,0.568v2c0,4.416,3.576,8,8,8s8-3.584,8-8v-6.552    c2.56-0.952,5.248-1.448,8-1.448h8c5.4,0,10.576,1.88,14.976,5.432c0.312,0.256,0.688,0.368,1.024,0.568v2c0,4.416,3.576,8,8,8    s8-3.584,8-8v-6.552c2.56-0.952,5.248-1.448,8-1.448h8c13.232,0,24,10.768,24,24H58.232H56C56,98.764,66.768,87.996,80,87.996z     M36.48,183.212c-4.576-5.584-6.392-12.84-4.976-19.928l3.192-15.992c2.232-11.184,12.136-19.296,23.536-19.296H213.76    c11.408,0,21.304,8.112,23.536,19.296l3.192,16c1.416,7.08-0.4,14.336-4.976,19.92s-11.328,8.784-18.544,8.784    c-4.424,0-8,3.584-8,8s3.576,8,8,8H224v16v160c0,13.232-10.768,24-24,24H72c-13.232,0-24-10.768-24-24v-160v-16h7.032    c0.168,0,0.312-0.088,0.488-0.096c0.168,0.008,0.312,0.096,0.48,0.096h48c4.424,0,8-3.584,8-8s-3.576-8-8-8H56    c-0.168,0-0.312,0.088-0.488,0.096c-0.168-0.008-0.312-0.096-0.48-0.096C47.816,191.996,41.056,188.796,36.48,183.212z     M464,423.996v8c0,4.408-3.72,8-8.28,8H24.28c-4.56,0-8.28-3.592-8.28-8v-8h56h128h149.936h60.128H464z M434.008,385.588    c-0.84,12.568-11.36,22.408-23.944,22.408h-60.128c-12.584,0-23.112-9.84-23.944-22.4l-13.44-201.6H447.44L434.008,385.588z     M464,167.996h-8H304h-8v-8c0-4.408,3.584-8,8-8h152c4.416,0,8,3.592,8,8V167.996z" fill="#3322ff" data-original="#000000" style="" class=""/>
	</g>
</g>
<g xmlns="http://www.w3.org/2000/svg">
	<g>
		<path d="M408,335.996h-56c-4.424,0-8,3.584-8,8c0,4.416,3.576,8,8,8h56c4.424,0,8-3.584,8-8    C416,339.58,412.424,335.996,408,335.996z" fill="#3322ff" data-original="#000000" style="" class=""/>
	</g>
</g>
<g xmlns="http://www.w3.org/2000/svg">
</g>
<g xmlns="http://www.w3.org/2000/svg">
</g>
<g xmlns="http://www.w3.org/2000/svg">
</g>
<g xmlns="http://www.w3.org/2000/svg">
</g>
<g xmlns="http://www.w3.org/2000/svg">
</g>
<g xmlns="http://www.w3.org/2000/svg">
</g>
<g xmlns="http://www.w3.org/2000/svg">
</g>
<g xmlns="http://www.w3.org/2000/svg">
</g>
<g xmlns="http://www.w3.org/2000/svg">
</g>
<g xmlns="http://www.w3.org/2000/svg">
</g>
<g xmlns="http://www.w3.org/2000/svg">
</g>
<g xmlns="http://www.w3.org/2000/svg">
</g>
<g xmlns="http://www.w3.org/2000/svg">
</g>
<g xmlns="http://www.w3.org/2000/svg">
</g>
<g xmlns="http://www.w3.org/2000/svg">
</g>
</g></svg>
